ply
format ascii 1.0
comment Created by Blender 2.76 (sub 0) - www.blender.org, source file: 'sign_full.blend'
element vertex 280
property float x
property float y
property float z
property uchar red
property uchar green
property uchar blue
element face 192
property list uchar uint vertex_indices
end_header
-0.050000 -0.150000 0.050000 0 0 255
-0.050000 -0.150000 -0.050000 0 0 255
-0.050000 -0.750000 -0.050000 0 0 255
0.050000 -0.150000 0.050000 0 0 255
0.050000 -0.150000 -0.050000 0 0 255
0.050000 -0.750000 0.050000 0 0 255
0.050000 -0.750000 -0.050000 0 0 255
-0.050000 -0.750000 0.050000 0 0 255
-0.050000 0.450000 0.450000 255 0 0
-0.050000 0.450000 -0.450000 255 0 0
-0.050000 -0.150000 -0.450000 255 0 0
0.050000 0.450000 0.450000 255 0 0
0.050000 0.450000 -0.450000 255 0 0
0.050000 -0.150000 0.450000 255 0 0
0.050000 -0.150000 -0.450000 255 0 0
-0.050000 -0.150000 0.450000 255 0 0
0.057114 0.068068 0.323392 0 255 0
0.057114 0.046283 0.289845 0 255 0
0.097114 0.046283 0.289845 0 255 0
0.097114 0.242512 0.210107 0 255 0
0.097114 0.220726 0.176560 0 255 0
0.057114 0.220726 0.176560 0 255 0
0.057114 0.242512 0.210107 0 255 0
0.097114 0.242512 0.210107 0 255 0
0.057114 0.068068 0.323392 0 255 0
0.057114 0.220726 0.176560 0 255 0
0.097114 0.046283 0.289845 0 255 0
0.097114 0.068068 0.323392 0 255 0
0.097114 0.220726 0.176560 0 255 0
0.097114 0.044397 0.329976 0 255 0
0.057114 0.044397 0.329976 0 255 0
0.057114 0.044397 0.289976 0 255 0
0.097114 0.244397 0.329976 0 255 0
0.097114 0.244397 0.289976 0 255 0
0.057114 0.244397 0.289976 0 255 0
0.097114 0.244397 0.329976 0 255 0
0.057114 0.244397 0.329976 0 255 0
0.057114 0.044397 0.329976 0 255 0
0.057114 0.044397 0.289976 0 255 0
0.097114 0.044397 0.289976 0 255 0
0.097114 0.044397 0.329976 0 255 0
0.097114 0.044397 0.209976 0 255 0
0.057114 0.044397 0.209976 0 255 0
0.057114 0.044397 0.169976 0 255 0
0.097114 0.244397 0.209976 0 255 0
0.097114 0.244397 0.169976 0 255 0
0.057114 0.244397 0.169976 0 255 0
0.097114 0.244397 0.209976 0 255 0
0.057114 0.244397 0.209976 0 255 0
0.057114 0.044397 0.209976 0 255 0
0.057114 0.244397 0.209976 0 255 0
0.097114 0.044397 0.169976 0 255 0
0.097114 0.044397 0.209976 0 255 0
0.097114 0.244397 0.169976 0 255 0
0.057114 0.124397 0.129976 0 255 0
0.057114 0.124397 0.049976 0 255 0
0.097114 0.124397 0.049976 0 255 0
0.097114 0.164397 0.129976 0 255 0
0.097114 0.164397 0.049976 0 255 0
0.057114 0.164397 0.049976 0 255 0
0.097114 0.164397 0.129976 0 255 0
0.057114 0.164397 0.129976 0 255 0
0.057114 0.124397 0.129976 0 255 0
0.057114 0.164397 0.129976 0 255 0
0.057114 0.164397 0.049976 0 255 0
0.057114 0.124397 0.049976 0 255 0
0.057114 0.164397 0.049976 0 255 0
0.097114 0.164397 0.049976 0 255 0
0.097114 0.124397 0.049976 0 255 0
0.097114 0.124397 0.129976 0 255 0
0.097114 0.124397 0.049976 0 255 0
0.057114 0.204397 0.129976 0 255 0
0.057114 0.204397 0.009976 0 255 0
0.097114 0.204397 0.009976 0 255 0
0.097114 0.244397 0.129976 0 255 0
0.097114 0.244397 0.009976 0 255 0
0.057114 0.244397 0.009976 0 255 0
0.097114 0.244397 0.129976 0 255 0
0.057114 0.244397 0.129976 0 255 0
0.057114 0.204397 0.129976 0 255 0
0.057114 0.244397 0.009976 0 255 0
0.057114 0.244397 0.009976 0 255 0
0.097114 0.244397 0.009976 0 255 0
0.097114 0.204397 0.009976 0 255 0
0.097114 0.204397 0.129976 0 255 0
0.097114 0.244397 0.009976 0 255 0
0.097114 0.084397 0.129976 0 255 0
0.057114 0.084397 0.129976 0 255 0
0.057114 0.084397 0.089976 0 255 0
0.097114 0.124397 0.129976 0 255 0
0.097114 0.124397 0.089976 0 255 0
0.057114 0.124397 0.089976 0 255 0
0.097114 0.124397 0.129976 0 255 0
0.057114 0.124397 0.129976 0 255 0
0.057114 0.084397 0.129976 0 255 0
0.057114 0.124397 0.129976 0 255 0
0.057114 0.124397 0.089976 0 255 0
0.057114 0.084397 0.089976 0 255 0
0.097114 0.124397 0.089976 0 255 0
0.097114 0.084397 0.129976 0 255 0
0.097114 0.084397 0.089976 0 255 0
0.097114 0.124397 0.089976 0 255 0
0.057114 0.044397 0.129976 0 255 0
0.057114 0.044397 0.009976 0 255 0
0.097114 0.044397 0.009976 0 255 0
0.097114 0.084397 0.129976 0 255 0
0.097114 0.084397 0.009976 0 255 0
0.057114 0.084397 0.009976 0 255 0
0.097114 0.084397 0.129976 0 255 0
0.057114 0.084397 0.129976 0 255 0
0.057114 0.044397 0.129976 0 255 0
0.057114 0.084397 0.129976 0 255 0
0.057114 0.044397 0.009976 0 255 0
0.057114 0.084397 0.009976 0 255 0
0.097114 0.084397 0.009976 0 255 0
0.097114 0.044397 0.009976 0 255 0
0.097114 0.044397 0.129976 0 255 0
0.097114 0.044397 0.009976 0 255 0
0.097114 0.044397 0.009976 0 255 0
0.057114 0.044397 0.009976 0 255 0
0.057114 0.044397 -0.030024 0 255 0
0.097114 0.244397 0.009976 0 255 0
0.097114 0.244397 -0.030024 0 255 0
0.057114 0.244397 -0.030024 0 255 0
0.097114 0.244397 0.009976 0 255 0
0.057114 0.244397 0.009976 0 255 0
0.057114 0.044397 0.009976 0 255 0
0.057114 0.244397 0.009976 0 255 0
0.057114 0.244397 -0.030024 0 255 0
0.057114 0.244397 -0.030024 0 255 0
0.097114 0.244397 -0.030024 0 255 0
0.097114 0.044397 -0.030024 0 255 0
0.097114 0.044397 0.009976 0 255 0
0.097114 0.244397 -0.030024 0 255 0
0.097114 0.044397 -0.070024 0 255 0
0.057114 0.044397 -0.070024 0 255 0
0.057114 0.044397 -0.110024 0 255 0
0.097114 0.244397 -0.070024 0 255 0
0.097114 0.244397 -0.110024 0 255 0
0.057114 0.244397 -0.110024 0 255 0
0.057114 0.244397 -0.070024 0 255 0
0.057114 0.044397 -0.070024 0 255 0
0.057114 0.244397 -0.070024 0 255 0
0.057114 0.244397 -0.110024 0 255 0
0.097114 0.044397 -0.110024 0 255 0
0.097114 0.044397 -0.070024 0 255 0
0.097114 0.044397 -0.110024 0 255 0
0.057114 0.204397 -0.150024 0 255 0
0.057114 0.204397 -0.310024 0 255 0
0.097114 0.204397 -0.310024 0 255 0
0.097114 0.244397 -0.310024 0 255 0
0.057114 0.244397 -0.310024 0 255 0
0.057114 0.244397 -0.150024 0 255 0
0.097114 0.244397 -0.150024 0 255 0
0.057114 0.244397 -0.150024 0 255 0
0.057114 0.204397 -0.150024 0 255 0
0.057114 0.244397 -0.310024 0 255 0
0.057114 0.204397 -0.310024 0 255 0
0.057114 0.204397 -0.310024 0 255 0
0.057114 0.244397 -0.310024 0 255 0
0.097114 0.244397 -0.310024 0 255 0
0.097114 0.204397 -0.150024 0 255 0
0.097114 0.204397 -0.310024 0 255 0
0.097114 0.164397 -0.270024 0 255 0
0.057114 0.164397 -0.270024 0 255 0
0.057114 0.164397 -0.310024 0 255 0
0.097114 0.204397 -0.270024 0 255 0
0.097114 0.204397 -0.310024 0 255 0
0.057114 0.204397 -0.310024 0 255 0
0.097114 0.204397 -0.270024 0 255 0
0.057114 0.204397 -0.270024 0 255 0
0.057114 0.164397 -0.270024 0 255 0
0.057114 0.204397 -0.310024 0 255 0
0.057114 0.164397 -0.310024 0 255 0
0.057114 0.164397 -0.310024 0 255 0
0.057114 0.204397 -0.310024 0 255 0
0.097114 0.204397 -0.310024 0 255 0
0.097114 0.164397 -0.270024 0 255 0
0.097114 0.164397 -0.310024 0 255 0
0.097114 0.204397 -0.310024 0 255 0
0.057114 0.124397 -0.150024 0 255 0
0.057114 0.124397 -0.310024 0 255 0
0.097114 0.124397 -0.310024 0 255 0
0.097114 0.164397 -0.310024 0 255 0
0.057114 0.164397 -0.310024 0 255 0
0.057114 0.164397 -0.150024 0 255 0
0.097114 0.164397 -0.150024 0 255 0
0.057114 0.164397 -0.150024 0 255 0
0.057114 0.124397 -0.150024 0 255 0
0.057114 0.164397 -0.150024 0 255 0
0.057114 0.124397 -0.310024 0 255 0
0.057114 0.164397 -0.310024 0 255 0
0.097114 0.164397 -0.310024 0 255 0
0.097114 0.124397 -0.310024 0 255 0
0.097114 0.124397 -0.150024 0 255 0
0.097114 0.124397 -0.310024 0 255 0
0.097114 0.084397 -0.150024 0 255 0
0.057114 0.084397 -0.150024 0 255 0
0.057114 0.084397 -0.190024 0 255 0
0.097114 0.124397 -0.150024 0 255 0
0.097114 0.124397 -0.190024 0 255 0
0.057114 0.124397 -0.190024 0 255 0
0.097114 0.124397 -0.150024 0 255 0
0.057114 0.124397 -0.150024 0 255 0
0.057114 0.084397 -0.150024 0 255 0
0.057114 0.124397 -0.150024 0 255 0
0.057114 0.124397 -0.190024 0 255 0
0.057114 0.084397 -0.190024 0 255 0
0.057114 0.124397 -0.190024 0 255 0
0.097114 0.124397 -0.190024 0 255 0
0.097114 0.084397 -0.150024 0 255 0
0.097114 0.084397 -0.190024 0 255 0
0.057114 0.044397 -0.150024 0 255 0
0.057114 0.044397 -0.310024 0 255 0
0.097114 0.044397 -0.310024 0 255 0
0.097114 0.084397 -0.310024 0 255 0
0.057114 0.084397 -0.310024 0 255 0
0.057114 0.084397 -0.150024 0 255 0
0.097114 0.084397 -0.150024 0 255 0
0.057114 0.084397 -0.150024 0 255 0
0.057114 0.044397 -0.150024 0 255 0
0.057114 0.084397 -0.150024 0 255 0
0.057114 0.044397 -0.310024 0 255 0
0.097114 0.044397 -0.150024 0 255 0
0.097114 0.044397 -0.310024 0 255 0
0.097114 0.084397 -0.310024 0 255 0
0.097114 0.068068 0.323392 0 255 0
0.057114 0.242512 0.210107 0 255 0
0.057114 0.046283 0.289845 0 255 0
0.097114 0.044397 0.289976 0 255 0
0.097114 0.044397 0.329976 0 255 0
0.057114 0.044397 0.329976 0 255 0
0.097114 0.044397 0.209976 0 255 0
0.057114 0.044397 0.169976 0 255 0
0.097114 0.244397 0.209976 0 255 0
0.097114 0.124397 0.129976 0 255 0
0.097114 0.124397 0.129976 0 255 0
0.057114 0.124397 0.129976 0 255 0
0.097114 0.164397 0.049976 0 255 0
0.057114 0.204397 0.129976 0 255 0
0.057114 0.244397 0.129976 0 255 0
0.057114 0.244397 0.009976 0 255 0
0.057114 0.204397 0.129976 0 255 0
0.057114 0.204397 0.009976 0 255 0
0.097114 0.084397 0.089976 0 255 0
0.057114 0.084397 0.089976 0 255 0
0.057114 0.124397 0.129976 0 255 0
0.097114 0.084397 0.129976 0 255 0
0.057114 0.084397 0.129976 0 255 0
0.097114 0.124397 0.129976 0 255 0
0.097114 0.044397 0.129976 0 255 0
0.057114 0.084397 0.129976 0 255 0
0.057114 0.044397 0.129976 0 255 0
0.057114 0.044397 0.009976 0 255 0
0.097114 0.084397 0.129976 0 255 0
0.097114 0.044397 -0.030024 0 255 0
0.057114 0.244397 0.009976 0 255 0
0.097114 0.044397 0.009976 0 255 0
0.057114 0.044397 0.009976 0 255 0
0.057114 0.044397 -0.030024 0 255 0
0.097114 0.244397 0.009976 0 255 0
0.097114 0.044397 -0.110024 0 255 0
0.097114 0.044397 -0.070024 0 255 0
0.097114 0.244397 -0.150024 0 255 0
0.057114 0.204397 -0.150024 0 255 0
0.097114 0.204397 -0.310024 0 255 0
0.097114 0.244397 -0.150024 0 255 0
0.097114 0.164397 -0.310024 0 255 0
0.057114 0.204397 -0.270024 0 255 0
0.097114 0.124397 -0.150024 0 255 0
0.097114 0.164397 -0.310024 0 255 0
0.097114 0.124397 -0.150024 0 255 0
0.057114 0.124397 -0.150024 0 255 0
0.097114 0.084397 -0.190024 0 255 0
0.057114 0.124397 -0.150024 0 255 0
0.057114 0.084397 -0.150024 0 255 0
0.097114 0.124397 -0.150024 0 255 0
0.097114 0.044397 -0.150024 0 255 0
0.097114 0.084397 -0.150024 0 255 0
0.057114 0.084397 -0.150024 0 255 0
3 0 1 2
3 3 4 1
3 5 6 4
3 7 2 6
3 1 4 6
3 3 0 7
3 7 0 2
3 0 3 1
3 3 5 4
3 5 7 6
3 2 1 6
3 5 3 7
3 8 9 10
3 11 12 9
3 13 14 12
3 15 10 14
3 9 12 14
3 11 8 15
3 15 8 10
3 8 11 9
3 11 13 12
3 13 15 14
3 10 9 14
3 13 11 15
3 16 17 18
3 19 20 21
3 22 16 23
3 24 22 25
3 21 20 26
3 27 26 28
3 29 30 31
3 32 33 34
3 35 36 37
3 36 34 38
3 34 33 39
3 40 39 33
3 41 42 43
3 44 45 46
3 47 48 49
3 50 46 43
3 46 45 51
3 52 51 53
3 54 55 56
3 57 58 59
3 60 61 62
3 63 64 65
3 66 67 68
3 57 69 70
3 71 72 73
3 74 75 76
3 77 78 79
3 78 80 72
3 81 82 83
3 84 73 85
3 86 87 88
3 89 90 91
3 92 93 94
3 95 96 97
3 97 96 98
3 99 100 101
3 102 103 104
3 105 106 107
3 108 109 110
3 111 107 112
3 113 114 115
3 116 117 106
3 118 119 120
3 121 122 123
3 124 125 126
3 127 128 120
3 129 130 131
3 132 131 133
3 134 135 136
3 137 138 139
3 137 140 141
3 142 143 136
3 139 138 144
3 145 146 138
3 147 148 149
3 150 151 152
3 153 154 155
3 152 156 157
3 158 159 160
3 161 162 150
3 163 164 165
3 166 167 168
3 169 170 171
3 170 172 173
3 174 175 176
3 177 178 179
3 180 181 182
3 183 184 185
3 186 187 188
3 189 184 190
3 191 192 193
3 194 195 192
3 196 197 198
3 199 200 201
3 202 203 204
3 205 206 207
3 207 208 209
3 210 211 209
3 212 213 214
3 215 216 217
3 218 219 220
3 221 216 213
3 222 216 215
3 223 224 225
3 226 16 18
3 227 19 21
3 23 16 226
3 228 24 25
3 228 21 26
3 23 27 28
3 229 29 31
3 36 32 34
3 230 35 37
3 231 36 38
3 38 34 39
3 35 40 33
3 51 41 43
3 50 44 46
3 232 47 49
3 49 50 43
3 233 46 51
3 234 52 53
3 235 54 56
3 61 57 59
3 236 60 62
3 237 63 65
3 65 64 68
3 238 57 70
3 84 239 73
3 240 74 241
3 84 77 79
3 242 78 72
3 243 81 83
3 74 84 85
3 244 86 245
3 246 89 91
3 247 92 94
3 248 95 97
3 100 97 98
3 249 99 101
3 250 102 104
3 251 105 107
3 116 108 110
3 252 111 112
3 253 113 115
3 254 116 106
3 255 118 120
3 256 121 123
3 257 124 126
3 258 127 120
3 259 129 131
3 260 132 133
3 261 134 136
3 140 137 139
3 262 137 141
3 141 142 136
3 136 139 144
3 137 145 138
3 161 147 149
3 263 150 152
3 161 153 155
3 264 152 157
3 265 158 160
3 266 161 150
3 267 163 165
3 268 166 168
3 177 169 171
3 171 170 173
3 178 174 176
3 169 177 179
3 269 180 182
3 186 270 185
3 271 186 188
3 272 189 190
3 181 191 193
3 186 194 192
3 273 196 198
3 274 199 201
3 210 202 204
3 275 205 207
3 211 207 209
3 276 210 209
3 277 212 214
3 278 215 279
3 223 218 220
3 220 221 213
3 224 222 215
3 218 223 225
