ply
format ascii 1.0
comment Created by Blender 2.92.0 - www.blender.org
element vertex 486
property float x
property float y
property float z
property float s
property float t
property uchar red
property uchar green
property uchar blue
property uchar alpha
element face 852
property list uchar uint vertex_indices
end_header
0.238725 -0.050000 0.045000 0.666667 0.000000 0 0 0 255
0.238725 0.291000 0.035000 0.333333 0.000000 0 0 0 255
0.238725 0.291000 0.045000 0.333333 0.000000 0 0 0 255
0.194625 -0.050000 0.035000 1.000000 0.000000 0 0 0 255
0.238725 -0.050000 0.035000 0.666667 0.000000 0 0 0 255
0.194625 0.291000 0.035000 0.000000 0.000000 0 0 0 255
0.194625 0.291000 0.045000 0.000000 0.000000 0 0 0 255
0.194625 -0.050000 0.045000 1.000000 0.000000 0 0 0 255
0.297545 0.007120 0.045000 0.341615 0.000000 0 0 0 255
0.295062 0.010545 0.035000 0.335404 0.000000 0 0 0 255
0.295062 0.010545 0.045000 0.335404 0.000000 0 0 0 255
0.058597 -0.051168 0.045000 0.864662 0.000000 0 0 0 255
0.074574 -0.047104 0.035000 0.857143 0.000000 0 0 0 255
0.074574 -0.047104 0.045000 0.857143 0.000000 0 0 0 255
0.059778 0.244798 0.045000 0.368421 0.000000 0 0 0 255
0.070714 0.240516 0.035000 0.360902 0.000000 0 0 0 255
0.070714 0.240516 0.045000 0.360902 0.000000 0 0 0 255
0.359333 0.171594 0.045000 0.776398 0.000000 0 0 0 255
0.289328 0.123148 0.035000 0.739130 0.000000 0 0 0 255
0.289328 0.123148 0.045000 0.739130 0.000000 0 0 0 255
-0.110875 0.291000 0.045000 0.444444 0.000000 0 0 0 255
-0.145975 0.291000 0.035000 0.333333 0.000000 0 0 0 255
-0.145975 0.291000 0.045000 0.333333 0.000000 0 0 0 255
0.089776 -0.041531 0.045000 0.849624 0.000000 0 0 0 255
0.104136 -0.034517 0.035000 0.842105 0.000000 0 0 0 255
0.104136 -0.034517 0.045000 0.842105 0.000000 0 0 0 255
-0.016038 -0.005563 0.045000 0.090226 0.000000 0 0 0 255
-0.048325 0.004000 0.035000 0.030075 0.000000 0 0 0 255
-0.048325 0.004000 0.045000 0.030075 0.000000 0 0 0 255
-0.002277 0.294133 0.045000 0.609023 0.000000 0 0 0 255
-0.026894 0.289437 0.035000 0.578947 0.000000 0 0 0 255
-0.026894 0.289437 0.045000 0.578947 0.000000 0 0 0 255
-0.357475 -0.050000 0.045000 0.888889 0.000000 5 5 5 255
-0.152275 0.212500 0.035000 0.777778 0.000000 0 0 0 255
-0.152275 0.212500 0.045000 0.777778 0.000000 1 1 1 255
0.010625 0.074000 0.045000 0.015038 0.000000 0 0 0 255
0.010625 0.118000 0.035000 0.007519 0.000000 0 0 0 255
0.010625 0.118000 0.045000 0.007519 0.000000 0 0 0 255
0.378019 0.223650 0.035000 0.819876 0.000000 0 0 0 255
0.376468 0.227453 0.035000 0.826087 0.000000 0 0 0 255
0.414380 0.242133 0.035000 0.173913 0.000000 0 0 0 255
0.406383 0.257683 0.045000 0.161491 0.000000 0 0 0 255
0.401306 0.264561 0.035000 0.155280 0.000000 0 0 0 255
0.401306 0.264561 0.045000 0.155280 0.000000 0 0 0 255
0.379149 0.219631 0.045000 0.813665 0.000000 0 0 0 255
0.379841 0.215410 0.035000 0.807453 0.000000 0 0 0 255
0.379841 0.215410 0.045000 0.807453 0.000000 0 0 0 255
0.056807 -0.004062 0.045000 0.172932 0.000000 0 0 0 255
0.044542 -0.007053 0.035000 0.165414 0.000000 0 0 0 255
0.044542 -0.007053 0.045000 0.165414 0.000000 0 0 0 255
0.400283 0.148094 0.045000 0.223602 0.000000 0 0 0 255
0.408774 0.159948 0.035000 0.217391 0.000000 0 0 0 255
0.408774 0.159948 0.045000 0.217391 0.000000 0 0 0 255
0.366160 0.289086 0.045000 0.124224 0.000000 0 0 0 255
0.357359 0.291858 0.035000 0.118012 0.000000 0 0 0 255
0.357359 0.291858 0.045000 0.118012 0.000000 0 0 0 255
0.036429 0.249847 0.045000 0.383459 0.000000 0 0 0 255
0.048332 0.247928 0.035000 0.375940 0.000000 0 0 0 255
0.048332 0.247928 0.045000 0.375940 0.000000 0 0 0 255
-0.031338 0.242000 0.045000 0.451128 0.000000 0 0 0 255
-0.003606 0.248359 0.035000 0.421053 0.000000 0 0 0 255
-0.003606 0.248359 0.045000 0.421053 0.000000 0 0 0 255
0.142475 0.120000 0.035000 0.270677 0.000000 0 0 0 255
0.141878 0.133660 0.035000 0.278196 0.000000 0 0 0 255
0.187104 0.137050 0.035000 0.751880 0.000000 0 0 0 255
0.395544 0.270812 0.035000 0.149068 0.000000 0 0 0 255
0.395544 0.270812 0.045000 0.149068 0.000000 0 0 0 255
0.420597 0.214668 0.045000 0.192547 0.000000 0 0 0 255
0.419329 0.224345 0.035000 0.186335 0.000000 0 0 0 255
0.419329 0.224345 0.045000 0.186335 0.000000 0 0 0 255
0.133348 0.171609 0.045000 0.300752 0.000000 0 0 0 255
0.137260 0.159522 0.035000 0.293233 0.000000 0 0 0 255
0.137260 0.159522 0.045000 0.293233 0.000000 0 0 0 255
0.331475 0.251500 0.045000 0.900621 0.000000 0 0 0 255
0.341703 0.250744 0.035000 0.888199 0.000000 0 0 0 255
0.341703 0.250744 0.045000 0.888199 0.000000 0 0 0 255
0.278114 0.113010 0.045000 0.732919 0.000000 0 0 0 255
0.268067 0.101594 0.035000 0.726708 0.000000 0 0 0 255
0.268067 0.101594 0.045000 0.726708 0.000000 0 0 0 255
0.372173 0.234361 0.045000 0.838509 0.000000 0 0 0 255
0.374513 0.231028 0.035000 0.832298 0.000000 0 0 0 255
0.374513 0.231028 0.045000 0.832298 0.000000 0 0 0 255
0.378584 0.199455 0.045000 0.795031 0.000000 0 0 0 255
0.374371 0.189211 0.035000 0.788820 0.000000 0 0 0 255
0.374371 0.189211 0.045000 0.788820 0.000000 0 0 0 255
0.161038 0.019816 0.045000 0.804511 0.000000 0 0 0 255
0.168982 0.034064 0.035000 0.796992 0.000000 0 0 0 255
0.168982 0.034064 0.045000 0.796992 0.000000 0 0 0 255
0.115505 0.035766 0.045000 0.218045 0.000000 0 0 0 255
0.107712 0.026750 0.035000 0.210526 0.000000 0 0 0 255
0.107712 0.026750 0.045000 0.210526 0.000000 0 0 0 255
-0.086125 0.266500 0.035000 0.518797 0.000000 0 0 0 255
-0.086125 0.266500 0.045000 0.518797 0.000000 0 0 0 255
0.292972 0.014108 0.035000 0.329193 0.000000 0 0 0 255
0.292972 0.014108 0.045000 0.329193 0.000000 0 0 0 255
0.057175 0.292017 0.045000 0.654135 0.000000 0 0 0 255
0.040499 0.294616 0.035000 0.646617 0.000000 0 0 0 255
0.040499 0.294616 0.045000 0.646617 0.000000 0 0 0 255
-0.086125 0.217000 0.045000 0.511278 0.000000 3 3 3 255
-0.058900 0.231516 0.035000 0.481203 0.000000 0 0 0 255
-0.058900 0.231516 0.045000 0.481203 0.000000 0 0 0 255
-0.395275 -0.050000 0.035000 1.000000 0.000000 0 0 0 255
-0.395275 0.291000 0.035000 0.000000 0.000000 0 0 0 255
-0.353875 0.027000 0.035000 0.222222 0.000000 0 0 0 255
-0.152275 -0.050000 0.035000 0.666667 0.000000 0 0 0 255
-0.152275 -0.050000 0.045000 0.666667 0.000000 0 0 0 255
0.184764 0.082355 0.045000 0.774436 0.000000 0 0 0 255
0.187124 0.100078 0.035000 0.766917 0.000000 0 0 0 255
0.187124 0.100078 0.045000 0.766917 0.000000 0 0 0 255
0.410750 0.250199 0.045000 0.167702 0.000000 0 0 0 255
0.406383 0.257683 0.035000 0.161491 0.000000 0 0 0 255
0.315992 -0.006453 0.045000 0.372671 0.000000 0 0 0 255
0.311485 -0.004354 0.035000 0.366460 0.000000 0 0 0 255
0.311485 -0.004354 0.045000 0.366460 0.000000 0 0 0 255
0.293000 0.289500 0.045000 0.049689 0.000000 0 0 0 255
0.275984 0.282000 0.035000 0.024845 0.000000 0 0 0 255
0.275984 0.282000 0.045000 0.024845 0.000000 0 0 0 255
0.323509 0.251103 0.045000 0.913043 0.000000 0 0 0 255
0.331475 0.251500 0.035000 0.900621 0.000000 0 0 0 255
0.090839 0.228721 0.045000 0.345865 0.000000 0 0 0 255
0.099920 0.221322 0.035000 0.338346 0.000000 0 0 0 255
0.099920 0.221322 0.045000 0.338346 0.000000 0 0 0 255
0.288460 0.028886 0.045000 0.304348 0.000000 0 0 0 255
0.288275 0.032500 0.035000 0.298137 0.000000 0 0 0 255
0.288275 0.032500 0.045000 0.298137 0.000000 0 0 0 255
0.000781 -0.008445 0.045000 0.120301 0.000000 0 0 0 255
-0.016038 -0.005563 0.035000 0.090226 0.000000 0 0 0 255
0.018275 -0.009500 0.045000 0.150376 0.000000 0 0 0 255
0.000781 -0.008445 0.035000 0.120301 0.000000 0 0 0 255
0.175353 0.188555 0.045000 0.729323 0.000000 0 0 0 255
0.168578 0.204085 0.035000 0.721804 0.000000 0 0 0 255
0.168578 0.204085 0.045000 0.721804 0.000000 0 0 0 255
0.379022 0.127578 0.045000 0.236025 0.000000 0 0 0 255
0.390236 0.137376 0.035000 0.229814 0.000000 0 0 0 255
0.390236 0.137376 0.045000 0.229814 0.000000 0 0 0 255
0.360437 -0.007266 0.045000 0.422360 0.000000 0 0 0 255
0.349439 -0.009686 0.035000 0.409938 0.000000 0 0 0 255
0.349439 -0.009686 0.045000 0.409938 0.000000 0 0 0 255
0.115849 0.203810 0.045000 0.323308 0.000000 0 0 0 255
0.122589 0.193811 0.035000 0.315789 0.000000 0 0 0 255
0.122589 0.193811 0.045000 0.315789 0.000000 0 0 0 255
0.257290 -0.007161 0.045000 0.670807 0.000000 0 0 0 255
0.261468 -0.014778 0.035000 0.664596 0.000000 0 0 0 255
0.261468 -0.014778 0.045000 0.664596 0.000000 0 0 0 255
0.288268 0.239317 0.045000 0.962733 0.000000 0 0 0 255
0.297500 0.244062 0.035000 0.950311 0.000000 0 0 0 255
0.297500 0.244062 0.045000 0.950311 0.000000 0 0 0 255
0.266296 -0.021841 0.045000 0.658385 0.000000 1 1 1 255
0.271737 -0.028313 0.035000 0.652174 0.000000 0 0 0 255
0.271737 -0.028313 0.045000 0.652174 0.000000 2 2 2 255
0.338225 -0.010500 0.035000 0.397516 0.000000 0 0 0 255
0.338225 -0.010500 0.045000 0.397516 0.000000 0 0 0 255
0.024125 0.250500 0.045000 0.390977 0.000000 1 1 1 255
0.036429 0.249847 0.035000 0.383459 0.000000 0 0 0 255
0.380075 0.211000 0.045000 0.801242 0.000000 0 0 0 255
0.378584 0.199455 0.035000 0.795031 0.000000 0 0 0 255
0.359311 0.245014 0.045000 0.863354 0.000000 0 0 0 255
0.363016 0.242779 0.035000 0.857143 0.000000 0 0 0 255
0.363016 0.242779 0.045000 0.857143 0.000000 0 0 0 255
0.140675 0.244687 0.045000 0.699248 0.000000 0 0 0 255
0.129085 0.255969 0.035000 0.691729 0.000000 0 0 0 255
0.129085 0.255969 0.045000 0.691729 0.000000 0 0 0 255
0.018275 -0.009500 0.035000 0.150376 0.000000 0 0 0 255
0.371171 -0.003275 0.045000 0.434783 0.000000 0 0 0 255
0.360437 -0.007266 0.035000 0.422360 0.000000 0 0 0 255
0.391658 0.009275 0.045000 0.459627 0.000000 0 0 0 255
0.381594 0.002250 0.035000 0.447205 0.000000 0 0 0 255
0.381594 0.002250 0.045000 0.447205 0.000000 0 0 0 255
-0.353875 0.027000 0.045000 0.222222 0.000000 0 0 0 255
0.300425 0.003875 0.045000 0.347826 0.000000 0 0 0 255
0.297545 0.007120 0.035000 0.341615 0.000000 0 0 0 255
0.421025 0.204500 0.045000 0.198758 0.000000 0 0 0 255
0.420597 0.214668 0.035000 0.192547 0.000000 0 0 0 255
0.326259 -0.009432 0.035000 0.385093 0.000000 0 0 0 255
0.326259 -0.009432 0.045000 0.385093 0.000000 0 0 0 255
0.399657 -0.036992 0.045000 0.527950 0.000000 0 0 0 255
0.419225 -0.023000 0.035000 0.503106 0.000000 0 0 0 255
0.419225 -0.023000 0.045000 0.503106 0.000000 0 0 0 255
0.116470 0.265995 0.035000 0.684211 0.000000 0 0 0 255
0.116470 0.265995 0.045000 0.684211 0.000000 0 0 0 255
0.128440 0.183058 0.035000 0.308271 0.000000 0 0 0 255
0.128440 0.183058 0.045000 0.308271 0.000000 0 0 0 255
0.366406 0.240250 0.035000 0.850932 0.000000 0 0 0 255
0.366406 0.240250 0.045000 0.850932 0.000000 0 0 0 255
0.081086 0.235137 0.045000 0.353383 0.000000 0 0 0 255
0.090839 0.228721 0.035000 0.345865 0.000000 0 0 0 255
0.400283 0.148094 0.035000 0.223602 0.000000 0 0 0 255
0.269213 0.225421 0.045000 0.987578 0.000000 0 0 0 255
0.278825 0.233148 0.035000 0.975155 0.000000 0 0 0 255
0.278825 0.233148 0.045000 0.975155 0.000000 0 0 0 255
0.351029 0.248547 0.035000 0.875776 0.000000 0 0 0 255
0.351029 0.248547 0.045000 0.875776 0.000000 0 0 0 255
0.415321 0.173156 0.045000 0.211180 0.000000 0 0 0 255
0.419534 0.187935 0.035000 0.204969 0.000000 0 0 0 255
0.419534 0.187935 0.045000 0.204969 0.000000 0 0 0 255
0.117590 -0.026129 0.035000 0.834586 0.000000 0 0 0 255
0.117590 -0.026129 0.045000 0.834586 0.000000 0 0 0 255
0.099066 0.018625 0.035000 0.203008 0.000000 0 0 0 255
0.099066 0.018625 0.045000 0.203008 0.000000 0 0 0 255
0.319103 0.295125 0.045000 0.086957 0.000000 0 0 0 255
0.310353 0.294000 0.035000 0.074534 0.000000 0 0 0 255
0.310353 0.294000 0.045000 0.074534 0.000000 0 0 0 255
0.160493 0.218669 0.035000 0.714286 0.000000 0 0 0 255
0.160493 0.218669 0.045000 0.714286 0.000000 0 0 0 255
0.306479 0.247519 0.045000 0.937888 0.000000 0 0 0 255
0.315162 0.249820 0.035000 0.925466 0.000000 0 0 0 255
0.315162 0.249820 0.045000 0.925466 0.000000 0 0 0 255
0.320916 -0.008160 0.035000 0.378882 0.000000 0 0 0 255
0.320916 -0.008160 0.045000 0.378882 0.000000 0 0 0 255
0.298962 -0.047570 0.045000 0.627329 0.000000 4 4 4 255
0.306962 -0.050548 0.035000 0.621118 0.000000 0 0 0 255
0.306962 -0.050548 0.045000 0.621118 0.000000 2 2 2 255
-0.005983 -0.052938 0.045000 0.909774 0.000000 0 0 0 255
0.024575 -0.054500 0.035000 0.879699 0.000000 0 0 0 255
0.024575 -0.054500 0.045000 0.879699 0.000000 0 0 0 255
0.133320 0.067703 0.045000 0.240602 0.000000 0 0 0 255
0.128352 0.056288 0.035000 0.233083 0.000000 0 0 0 255
0.128352 0.056288 0.045000 0.233083 0.000000 0 0 0 255
-0.395275 -0.050000 0.045000 1.000000 0.000000 0 0 0 255
-0.357475 -0.050000 0.035000 0.888889 0.000000 0 0 0 255
0.102900 0.274690 0.035000 0.676692 0.000000 0 0 0 255
0.102900 0.274690 0.045000 0.676692 0.000000 0 0 0 255
-0.048325 0.074000 0.045000 0.022556 0.000000 0 0 0 255
0.010625 0.074000 0.035000 0.015038 0.000000 0 0 0 255
0.108275 0.213000 0.035000 0.330827 0.000000 0 0 0 255
0.108275 0.213000 0.045000 0.330827 0.000000 0 0 0 255
0.253029 0.073898 0.045000 0.714286 0.000000 0 0 0 255
0.248816 0.057104 0.035000 0.708075 0.000000 0 0 0 255
0.248816 0.057104 0.045000 0.708075 0.000000 0 0 0 255
0.289019 0.025197 0.045000 0.310559 0.000000 0 0 0 255
0.248988 0.018665 0.045000 0.689441 0.000000 0 0 0 255
0.041908 -0.053656 0.045000 0.872180 0.000000 0 0 0 255
0.058597 -0.051168 0.035000 0.864662 0.000000 0 0 0 255
0.389122 0.276413 0.045000 0.142857 0.000000 0 0 0 255
0.382067 0.281341 0.035000 0.136646 0.000000 0 0 0 255
0.382067 0.281341 0.045000 0.136646 0.000000 0 0 0 255
0.415321 0.173156 0.035000 0.211180 0.000000 0 0 0 255
0.141878 0.133660 0.045000 0.278196 0.000000 0 0 0 255
0.142475 0.120000 0.045000 0.270677 0.000000 0 0 0 255
0.187104 0.137050 0.045000 0.751880 0.000000 0 0 0 255
0.115849 0.203810 0.035000 0.323308 0.000000 0 0 0 255
0.079384 0.005228 0.045000 0.187970 0.000000 0 0 0 255
0.068436 0.000047 0.035000 0.180451 0.000000 0 0 0 255
0.068436 0.000047 0.045000 0.180451 0.000000 0 0 0 255
0.376468 0.227453 0.045000 0.826087 0.000000 0 0 0 255
0.251015 0.009597 0.035000 0.683230 0.000000 0 0 0 255
0.251015 0.009597 0.045000 0.683230 0.000000 0 0 0 255
0.291270 0.017766 0.035000 0.322981 0.000000 0 0 0 255
0.291270 0.017766 0.045000 0.322981 0.000000 0 0 0 255
0.187925 0.118500 0.035000 0.759399 0.000000 0 0 0 255
0.187925 0.118500 0.045000 0.759399 0.000000 0 0 0 255
0.259576 0.088643 0.045000 0.720497 0.000000 0 0 0 255
0.253029 0.073898 0.035000 0.714286 0.000000 0 0 0 255
0.259475 0.216000 0.045000 1.000000 0.000000 0 0 0 255
0.269213 0.225421 0.035000 0.987578 0.000000 0 0 0 255
0.309017 0.075969 0.045000 0.273292 0.000000 0 0 0 255
0.319064 0.084800 0.035000 0.267081 0.000000 0 0 0 255
0.319064 0.084800 0.045000 0.267081 0.000000 0 0 0 255
0.133348 0.171609 0.035000 0.300752 0.000000 0 0 0 255
0.259475 0.271500 0.035000 0.000000 0.000000 0 0 0 255
0.259475 0.271500 0.045000 0.000000 0.000000 0 0 0 255
0.374405 0.285573 0.045000 0.130435 0.000000 0 0 0 255
0.366160 0.289086 0.035000 0.124224 0.000000 0 0 0 255
0.259576 0.088643 0.035000 0.720497 0.000000 0 0 0 255
0.130073 -0.016434 0.035000 0.827068 0.000000 0 0 0 255
0.130073 -0.016434 0.045000 0.827068 0.000000 0 0 0 255
0.184687 0.154960 0.045000 0.744361 0.000000 0 0 0 255
0.180747 0.172154 0.035000 0.736842 0.000000 0 0 0 255
0.180747 0.172154 0.045000 0.736842 0.000000 0 0 0 255
0.151862 0.006606 0.045000 0.812030 0.000000 0 0 0 255
0.161038 0.019816 0.035000 0.804511 0.000000 0 0 0 255
0.293000 0.289500 0.035000 0.049689 0.000000 0 0 0 255
0.151168 0.232229 0.045000 0.706767 0.000000 0 0 0 255
0.140675 0.244687 0.035000 0.699248 0.000000 0 0 0 255
0.141519 -0.005500 0.045000 0.819549 0.000000 0 0 0 255
0.151862 0.006606 0.035000 0.812030 0.000000 0 0 0 255
0.306479 0.247519 0.035000 0.937888 0.000000 0 0 0 255
0.253794 0.000977 0.045000 0.677019 0.000000 0 0 0 255
0.257290 -0.007161 0.035000 0.670807 0.000000 0 0 0 255
0.421025 0.204500 0.035000 0.198758 0.000000 0 0 0 255
0.056807 -0.004062 0.035000 0.172932 0.000000 0 0 0 255
0.303706 0.000853 0.045000 0.354037 0.000000 0 0 0 255
0.300425 0.003875 0.035000 0.347826 0.000000 0 0 0 255
0.184687 0.154960 0.035000 0.744361 0.000000 0 0 0 255
0.378019 0.223650 0.045000 0.819876 0.000000 0 0 0 255
0.379149 0.219631 0.035000 0.813665 0.000000 0 0 0 255
0.140121 0.146853 0.045000 0.285714 0.000000 0 0 0 255
-0.086125 0.217000 0.035000 0.511278 0.000000 0 0 0 255
0.288268 0.239317 0.035000 0.962733 0.000000 0 0 0 255
0.059778 0.244798 0.035000 0.368421 0.000000 0 0 0 255
0.278114 0.113010 0.035000 0.732919 0.000000 0 0 0 255
0.253794 0.000977 0.035000 0.677019 0.000000 0 0 0 255
0.380075 0.211000 0.035000 0.801242 0.000000 0 0 0 255
-0.110875 -0.050000 0.045000 0.555556 0.000000 0 0 0 255
-0.110875 0.291000 0.035000 0.444444 0.000000 0 0 0 255
0.073182 0.287778 0.045000 0.661654 0.000000 0 0 0 255
0.057175 0.292017 0.035000 0.654135 0.000000 0 0 0 255
0.140121 0.146853 0.035000 0.285714 0.000000 0 0 0 255
0.175353 0.188555 0.035000 0.729323 0.000000 0 0 0 255
0.333275 -0.054500 0.045000 0.602484 0.000000 0 0 0 255
0.357146 -0.052602 0.035000 0.577640 0.000000 0 0 0 255
0.357146 -0.052602 0.045000 0.577640 0.000000 0 0 0 255
0.338191 0.295088 0.045000 0.105590 0.000000 0 0 0 255
0.319103 0.295125 0.035000 0.086957 0.000000 0 0 0 255
0.122399 0.045627 0.045000 0.225564 0.000000 0 0 0 255
0.115505 0.035766 0.035000 0.218045 0.000000 0 0 0 255
0.338191 0.295088 0.035000 0.105590 0.000000 0 0 0 255
0.389122 0.276413 0.035000 0.142857 0.000000 0 0 0 255
0.089609 0.011436 0.045000 0.195489 0.000000 0 0 0 255
0.079384 0.005228 0.035000 0.187970 0.000000 0 0 0 255
0.289954 0.021476 0.045000 0.316770 0.000000 0 0 0 255
0.289019 0.025197 0.035000 0.310559 0.000000 0 0 0 255
0.369464 0.237440 0.045000 0.844720 0.000000 0 0 0 255
0.372173 0.234361 0.035000 0.838509 0.000000 0 0 0 255
0.089609 0.011436 0.035000 0.195489 0.000000 0 0 0 255
0.266296 -0.021841 0.035000 0.658385 0.000000 0 0 0 255
0.417249 0.233507 0.035000 0.180124 0.000000 0 0 0 255
0.417249 0.233507 0.045000 0.180124 0.000000 0 0 0 255
0.288460 0.028886 0.035000 0.304348 0.000000 0 0 0 255
0.088447 0.281977 0.045000 0.669173 0.000000 0 0 0 255
0.073182 0.287778 0.035000 0.661654 0.000000 0 0 0 255
0.410521 0.027686 0.045000 0.484472 0.000000 6 6 6 255
0.401316 0.017766 0.035000 0.472050 0.000000 0 0 0 255
0.401316 0.017766 0.045000 0.472050 0.000000 0 0 0 255
-0.031338 0.242000 0.035000 0.451128 0.000000 1 1 1 255
0.293979 0.056297 0.045000 0.285714 0.000000 0 0 0 255
0.300526 0.066540 0.035000 0.279503 0.000000 0 0 0 255
0.300526 0.066540 0.045000 0.279503 0.000000 0 0 0 255
-0.353875 0.291000 0.035000 0.111111 0.000000 0 0 0 255
-0.353875 0.291000 0.045000 0.111111 0.000000 1 1 1 255
0.315370 -0.052720 0.045000 0.614907 0.000000 1 1 1 255
0.324152 -0.054049 0.035000 0.608696 0.000000 0 0 0 255
0.324152 -0.054049 0.045000 0.608696 0.000000 0 0 0 255
0.289954 0.021476 0.035000 0.316770 0.000000 0 0 0 255
0.247325 0.038000 0.045000 0.701863 0.000000 0 0 0 255
0.247746 0.028145 0.035000 0.695652 0.000000 0 0 0 255
0.247746 0.028145 0.045000 0.695652 0.000000 0 0 0 255
0.248988 0.018665 0.035000 0.689441 0.000000 0 0 0 255
0.414380 0.242133 0.045000 0.173913 0.000000 0 0 0 255
0.333275 -0.054500 0.035000 0.602484 0.000000 0 0 0 255
0.391658 0.009275 0.035000 0.459627 0.000000 0 0 0 255
0.291406 -0.043822 0.045000 0.633540 0.000000 5 5 5 255
0.298962 -0.047570 0.035000 0.627329 0.000000 0 0 0 255
0.141519 -0.005500 0.035000 0.819549 0.000000 0 0 0 255
0.175627 0.049281 0.045000 0.789474 0.000000 0 0 0 255
0.180910 0.065401 0.035000 0.781955 0.000000 0 0 0 255
0.180910 0.065401 0.045000 0.781955 0.000000 0 0 0 255
0.122399 0.045627 0.035000 0.225564 0.000000 0 0 0 255
0.307391 -0.001904 0.035000 0.360248 0.000000 0 0 0 255
0.307391 -0.001904 0.045000 0.360248 0.000000 0 0 0 255
-0.395275 0.291000 0.045000 0.000000 0.000000 0 0 0 255
0.023225 0.295500 0.035000 0.639098 0.000000 0 0 0 255
0.023225 0.295500 0.045000 0.639098 0.000000 0 0 0 255
0.309017 0.075969 0.035000 0.273292 0.000000 0 0 0 255
0.315370 -0.052720 0.035000 0.614907 0.000000 0 0 0 255
-0.048325 0.074000 0.035000 0.022556 0.000000 0 0 0 255
0.419225 0.039000 0.045000 0.496894 0.000000 19 19 19 255
0.410521 0.027686 0.035000 0.484472 0.000000 0 0 0 255
0.371171 -0.003275 0.035000 0.434783 0.000000 0 0 0 255
-0.034600 -0.048000 0.045000 0.939850 0.000000 13 13 13 255
-0.005983 -0.052938 0.035000 0.909774 0.000000 0 0 0 255
0.410750 0.250199 0.035000 0.167702 0.000000 0 0 0 255
0.175627 0.049281 0.035000 0.789474 0.000000 0 0 0 255
0.359311 0.245014 0.035000 0.863354 0.000000 0 0 0 255
0.367824 0.180010 0.035000 0.782609 0.000000 0 0 0 255
0.367824 0.180010 0.045000 0.782609 0.000000 0 0 0 255
0.247325 0.038000 0.035000 0.701863 0.000000 0 0 0 255
0.140128 0.092615 0.045000 0.255639 0.000000 0 0 0 255
0.137260 0.079827 0.035000 0.248120 0.000000 0 0 0 255
0.137260 0.079827 0.045000 0.248120 0.000000 0 0 0 255
0.379119 -0.046813 0.045000 0.552795 0.000000 0 0 0 255
0.399657 -0.036992 0.035000 0.527950 0.000000 0 0 0 255
0.359333 0.171594 0.035000 0.776398 0.000000 0 0 0 255
-0.092425 -0.026500 0.045000 1.000000 0.000000 13 13 13 255
-0.062880 -0.039313 0.035000 0.969925 0.000000 0 0 0 255
-0.062880 -0.039313 0.045000 0.969925 0.000000 14 14 14 255
0.151168 0.232229 0.035000 0.706767 0.000000 0 0 0 255
0.133320 0.067703 0.035000 0.240602 0.000000 0 0 0 255
0.289766 0.045022 0.035000 0.291925 0.000000 0 0 0 255
0.289766 0.045022 0.045000 0.291925 0.000000 0 0 0 255
0.323509 0.251103 0.035000 0.913043 0.000000 0 0 0 255
-0.110875 -0.050000 0.035000 0.555556 0.000000 0 0 0 255
0.419225 0.039000 0.035000 0.496894 0.000000 0 0 0 255
0.184764 0.082355 0.035000 0.774436 0.000000 0 0 0 255
-0.092425 0.118000 0.045000 0.000000 0.000000 2 2 2 255
-0.092425 -0.026500 0.035000 1.000000 0.000000 0 0 0 255
0.284327 -0.039339 0.045000 0.639752 0.000000 8 8 8 255
0.291406 -0.043822 0.035000 0.633540 0.000000 0 0 0 255
0.293979 0.056297 0.035000 0.285714 0.000000 0 0 0 255
0.041908 -0.053656 0.035000 0.872180 0.000000 0 0 0 255
0.369464 0.237440 0.035000 0.844720 0.000000 0 0 0 255
0.379022 0.127578 0.035000 0.236025 0.000000 0 0 0 255
0.379119 -0.046813 0.035000 0.552795 0.000000 0 0 0 255
0.024125 0.250500 0.035000 0.390977 0.000000 0 0 0 255
0.303706 0.000853 0.035000 0.354037 0.000000 0 0 0 255
0.081086 0.235137 0.035000 0.353383 0.000000 0 0 0 255
0.277759 -0.034157 0.045000 0.645963 0.000000 3 3 3 255
0.284327 -0.039339 0.035000 0.639752 0.000000 0 0 0 255
0.088447 0.281977 0.035000 0.669173 0.000000 0 0 0 255
0.089776 -0.041531 0.035000 0.849624 0.000000 0 0 0 255
-0.092425 0.118000 0.035000 0.000000 0.000000 0 0 0 255
0.277759 -0.034157 0.035000 0.645963 0.000000 0 0 0 255
0.315992 -0.006453 0.035000 0.372671 0.000000 0 0 0 255
-0.002277 0.294133 0.035000 0.609023 0.000000 0 0 0 255
0.259475 0.216000 0.035000 1.000000 0.000000 0 0 0 255
0.374405 0.285573 0.035000 0.130435 0.000000 0 0 0 255
0.141881 0.106021 0.035000 0.263158 0.000000 0 0 0 255
0.141881 0.106021 0.045000 0.263158 0.000000 0 0 0 255
0.140128 0.092615 0.035000 0.255639 0.000000 0 0 0 255
-0.034600 -0.048000 0.035000 0.939850 0.000000 0 0 0 255
0.480000 0.500000 -0.055000 0.450000 0.830357 150 111 51 255
0.480000 -0.500000 0.045000 0.550000 0.330357 150 111 51 255
0.480000 -0.500000 -0.055000 0.450000 0.330357 150 111 51 255
-0.470000 0.500000 0.045000 0.550000 0.830357 150 111 51 255
-0.470000 -0.500000 -0.055000 0.450000 0.330357 150 111 51 255
-0.470000 -0.500000 0.045000 0.550000 0.330357 150 111 51 255
0.480000 0.500000 -0.055000 0.032540 0.450000 150 111 51 255
-0.470000 0.500000 0.045000 1.088095 0.550000 150 111 51 255
0.480000 0.500000 0.045000 0.032540 0.550000 150 111 51 255
0.385000 -0.250000 0.045000 0.550000 0.455357 150 111 51 255
0.385000 -0.500000 -0.055000 0.450000 0.330357 150 111 51 255
0.385000 -0.500000 0.045000 0.550000 0.330357 150 111 51 255
-0.375000 -0.500000 -0.055000 0.000000 0.090240 150 111 51 255
-0.375000 -0.250000 0.045000 0.866217 0.317680 150 111 51 255
-0.375000 -0.500000 0.045000 0.866217 0.090240 150 111 51 255
-0.375000 -0.250000 -0.055000 0.982540 0.450000 150 111 51 255
0.385000 -0.250000 0.045000 0.138095 0.550000 150 111 51 255
-0.375000 -0.250000 0.045000 0.982540 0.550000 150 111 51 255
-0.470000 0.500000 -0.055000 0.133782 1.000000 150 111 51 255
0.480000 0.500000 -0.055000 1.000000 1.000000 150 111 51 255
-0.375000 -0.250000 -0.055000 0.220404 0.317680 150 111 51 255
0.480000 -0.500000 -0.055000 0.032540 0.450000 150 111 51 255
0.385000 -0.500000 0.045000 0.138095 0.550000 150 111 51 255
0.385000 -0.500000 -0.055000 0.138095 0.450000 150 111 51 255
-0.470000 -0.500000 -0.055000 1.088095 0.450000 150 111 51 255
-0.375000 -0.500000 0.045000 0.982540 0.550000 150 111 51 255
-0.470000 -0.500000 0.045000 1.088095 0.550000 150 111 51 255
0.432500 -0.195000 0.035000 0.779595 0.367716 150 111 51 255
0.432500 0.455000 0.045000 0.866217 0.959061 150 111 51 255
0.432500 0.455000 0.035000 0.779595 0.959061 150 111 51 255
-0.422500 0.455000 0.035000 0.779595 0.959061 150 111 51 255
-0.422500 -0.195000 0.045000 0.866217 0.367716 150 111 51 255
-0.422500 -0.195000 0.035000 0.779595 0.367716 150 111 51 255
-0.422500 -0.195000 0.035000 0.779595 0.045488 150 111 51 255
-0.422500 -0.195000 0.045000 0.866217 0.045488 150 111 51 255
-0.381967 -0.195000 0.045000 0.866217 0.084304 150 111 51 255
0.432500 0.455000 0.035000 0.779595 0.864272 150 111 51 255
-0.422500 0.455000 0.045000 0.866217 0.045488 150 111 51 255
-0.422500 0.455000 0.035000 0.779595 0.045488 150 111 51 255
0.480000 0.500000 0.045000 1.000000 1.000000 150 111 51 255
-0.470000 0.500000 0.045000 0.133782 1.000000 150 111 51 255
0.432500 0.455000 0.045000 0.956689 0.959061 150 111 51 255
-0.375000 -0.250000 0.045000 0.220404 0.317680 150 111 51 255
0.391967 -0.195000 0.045000 0.919731 0.367716 150 111 51 255
-0.381967 -0.195000 0.045000 0.214052 0.367716 150 111 51 255
-0.422500 -0.195000 0.035000 0.039683 0.167549 255 255 255 255
0.432500 0.455000 0.035000 0.960317 0.832451 255 255 255 255
-0.422500 0.455000 0.035000 0.039683 0.832451 255 255 255 255
0.480000 0.500000 0.045000 0.550000 0.830357 150 111 51 255
-0.470000 0.500000 -0.055000 0.450000 0.830357 150 111 51 255
-0.470000 0.500000 -0.055000 1.088095 0.450000 150 111 51 255
0.385000 -0.250000 -0.055000 0.450000 0.455357 150 111 51 255
-0.375000 -0.250000 -0.055000 0.000000 0.317680 150 111 51 255
0.385000 -0.250000 -0.055000 0.138095 0.450000 150 111 51 255
-0.375000 -0.500000 -0.055000 0.220404 0.090240 150 111 51 255
-0.470000 -0.500000 -0.055000 0.133782 0.090240 150 111 51 255
0.480000 -0.500000 -0.055000 1.000000 0.090240 150 111 51 255
0.385000 -0.250000 -0.055000 0.913378 0.317680 150 111 51 255
0.385000 -0.500000 -0.055000 0.913378 0.090240 150 111 51 255
0.480000 -0.500000 0.045000 0.032540 0.550000 150 111 51 255
-0.375000 -0.500000 -0.055000 0.982540 0.450000 150 111 51 255
0.432500 -0.195000 0.045000 0.866217 0.367716 150 111 51 255
-0.422500 0.455000 0.045000 0.866217 0.959061 150 111 51 255
0.391967 -0.195000 0.045000 0.866217 0.825456 150 111 51 255
0.432500 -0.195000 0.045000 0.866217 0.864272 150 111 51 255
0.432500 -0.195000 0.035000 0.779595 0.864272 150 111 51 255
0.432500 0.455000 0.045000 0.866217 0.864272 150 111 51 255
0.432500 -0.195000 0.045000 0.956689 0.367716 150 111 51 255
0.385000 -0.250000 0.045000 0.913378 0.317680 150 111 51 255
0.385000 -0.500000 0.045000 0.913378 0.090240 150 111 51 255
0.480000 -0.500000 0.045000 1.000000 0.090240 150 111 51 255
-0.470000 -0.500000 0.045000 0.133782 0.090240 150 111 51 255
-0.375000 -0.500000 0.045000 0.220404 0.090240 150 111 51 255
-0.422500 -0.195000 0.045000 0.177093 0.367716 150 111 51 255
-0.422500 0.455000 0.045000 0.177093 0.959061 150 111 51 255
0.432500 -0.195000 0.035000 0.960317 0.167549 255 255 255 255
3 0 1 2
3 3 1 4
3 2 5 6
3 6 3 7
3 2 7 0
3 7 4 0
3 0 4 1
3 3 5 1
3 2 1 5
3 6 5 3
3 2 6 7
3 7 3 4
3 8 9 10
3 11 12 13
3 14 15 16
3 17 18 19
3 20 21 22
3 23 24 25
3 26 27 28
3 29 30 31
3 32 33 34
3 35 36 37
3 38 39 40
3 41 42 43
3 44 45 46
3 47 48 49
3 50 51 52
3 53 54 55
3 56 57 58
3 59 60 61
3 62 63 64
3 43 65 66
3 67 68 69
3 70 71 72
3 73 74 75
3 76 77 78
3 79 80 81
3 82 83 84
3 85 86 87
3 88 89 90
3 31 91 92
3 10 93 94
3 95 96 97
3 98 99 100
3 101 102 103
3 34 104 105
3 106 107 108
3 109 110 41
3 111 112 113
3 114 115 116
3 117 118 73
3 119 120 121
3 122 123 124
3 125 126 26
3 127 128 125
3 129 130 131
3 132 133 134
3 135 136 137
3 138 139 140
3 141 142 143
3 144 145 146
3 147 148 149
3 137 150 151
3 152 153 56
3 154 155 82
3 156 157 158
3 159 160 161
3 49 162 127
3 163 164 135
3 165 166 167
3 22 103 168
3 169 170 8
3 171 172 67
3 151 173 174
3 175 176 177
3 161 178 179
3 140 180 181
3 158 182 183
3 184 185 119
3 134 186 50
3 187 188 189
3 75 190 191
3 192 193 194
3 25 195 196
3 90 197 198
3 199 200 201
3 131 202 203
3 204 205 206
3 174 207 208
3 209 210 211
3 212 213 214
3 215 216 217
3 218 219 32
3 179 220 221
3 222 223 35
3 121 224 225
3 226 227 228
3 229 122 230
3 231 232 11
3 233 234 235
3 52 236 192
3 237 238 239
3 225 240 138
3 241 242 243
3 81 39 244
3 230 245 246
3 94 247 248
3 108 249 250
3 251 252 226
3 253 254 187
3 255 256 257
3 181 258 70
3 116 259 260
3 261 262 53
3 78 263 251
3 196 264 265
3 266 267 268
3 269 270 85
3 201 271 114
3 272 273 159
3 274 275 269
3 146 276 204
3 277 278 141
3 194 279 171
3 243 280 47
3 281 282 169
3 239 283 266
3 250 64 239
3 284 285 44
3 286 63 237
3 92 287 98
3 189 288 144
3 58 289 14
3 19 290 76
3 246 291 277
3 46 292 154
3 293 294 20
3 295 296 95
3 72 297 286
3 268 298 129
3 168 32 34
3 299 300 301
3 302 303 199
3 304 305 88
3 55 306 302
3 66 307 233
3 308 309 241
3 310 311 229
3 312 313 79
3 198 314 308
3 143 315 147
3 69 316 317
3 244 38 284
3 229 318 122
3 319 320 295
3 321 322 323
3 100 324 59
3 325 326 327
3 168 328 329
3 330 331 332
3 248 333 310
3 334 335 336
3 336 337 230
3 317 40 338
3 332 339 299
3 323 340 165
3 341 342 209
3 265 343 274
3 344 345 346
3 217 347 304
3 113 348 349
3 329 102 350
3 97 351 352
3 327 353 255
3 211 354 330
3 28 355 222
3 356 357 321
3 167 358 163
3 359 360 212
3 338 361 109
3 87 362 344
3 191 363 156
3 84 364 365
3 228 366 334
3 367 368 369
3 370 371 175
3 365 372 17
3 373 374 375
3 203 376 272
3 369 377 215
3 124 378 379
3 206 380 117
3 105 381 293
3 177 382 356
3 346 383 106
3 384 385 373
3 386 387 341
3 379 388 325
3 214 389 231
3 183 390 312
3 257 391 132
3 301 392 370
3 237 62 238
3 61 393 152
3 349 394 281
3 350 101 218
3 16 395 184
3 396 397 386
3 221 398 319
3 13 399 23
3 37 400 384
3 149 401 396
3 208 402 111
3 352 403 29
3 260 404 253
3 235 405 261
3 238 406 407
3 407 408 367
3 375 409 359
3 8 170 9
3 11 232 12
3 14 289 15
3 17 372 18
3 20 294 21
3 23 399 24
3 26 126 27
3 29 403 30
3 32 219 33
3 35 223 36
3 254 404 259
3 259 115 288
3 115 271 145
3 259 288 188
3 271 200 205
3 200 303 380
3 303 306 118
3 306 54 74
3 190 54 262
3 262 405 363
3 405 234 363
3 234 307 157
3 363 234 157
3 307 65 182
3 65 42 390
3 42 110 313
3 110 361 80
3 361 40 39
3 40 316 38
3 316 68 285
3 68 172 45
3 172 279 292
3 279 193 155
3 193 236 155
3 236 51 83
3 51 186 364
3 186 133 364
3 51 364 83
3 133 391 372
3 391 256 372
3 279 155 292
3 236 83 155
3 80 361 39
3 38 316 285
3 65 390 182
3 157 307 182
3 390 42 313
3 262 363 190
3 200 380 205
3 54 190 74
3 254 259 188
3 288 115 145
3 364 133 372
3 256 353 18
3 353 326 77
3 276 145 271
3 205 276 271
3 357 382 176
3 176 371 340
3 371 392 358
3 358 392 164
3 392 300 164
3 300 339 150
3 150 339 173
3 339 331 173
3 331 354 173
3 354 210 207
3 210 342 402
3 354 207 173
3 342 387 112
3 387 397 348
3 397 401 394
3 401 148 282
3 148 315 170
3 315 142 9
3 142 278 93
3 278 291 247
3 291 245 333
3 245 337 311
3 318 337 335
3 335 366 123
3 366 227 378
3 227 252 378
3 378 252 388
3 252 263 388
3 263 77 326
3 388 263 326
3 77 290 353
3 290 18 353
3 18 372 256
3 337 318 311
3 335 123 318
3 282 148 170
3 315 9 170
3 394 401 282
3 402 342 112
3 348 397 394
3 322 357 176
3 340 322 176
3 300 150 136
3 210 402 207
3 166 340 371
3 358 166 371
3 136 164 300
3 118 380 303
3 74 118 306
3 112 387 348
3 9 142 93
3 93 278 247
3 333 247 291
3 311 333 245
3 378 123 366
3 313 110 80
3 172 292 45
3 45 285 68
3 41 110 42
3 44 285 45
3 47 280 48
3 50 186 51
3 53 262 54
3 56 153 57
3 59 324 60
3 99 287 91
3 91 30 324
3 30 403 60
3 91 324 99
3 403 351 393
3 351 96 393
3 96 296 57
3 296 320 289
3 96 57 153
3 320 398 15
3 398 220 395
3 320 15 289
3 220 178 185
3 178 160 120
3 220 185 395
3 160 273 224
3 273 376 240
3 160 224 120
3 376 202 139
3 202 130 180
3 376 139 240
3 130 298 258
3 298 267 71
3 130 258 180
3 267 283 297
3 283 64 63
3 267 297 71
3 64 249 62
3 249 107 406
3 107 383 408
3 383 345 368
3 345 362 368
3 362 86 377
3 377 86 216
3 86 270 216
3 270 275 347
3 347 275 305
3 275 343 305
3 343 264 89
3 89 264 197
3 264 195 197
3 195 24 314
3 314 24 309
3 24 399 309
3 399 12 242
3 242 12 280
3 12 232 280
3 232 389 48
3 389 213 162
3 213 360 162
3 360 409 126
3 409 374 27
3 360 126 128
3 374 385 27
3 385 400 355
3 400 36 355
3 36 223 355
3 162 360 128
3 232 48 280
3 249 406 62
3 383 368 408
3 393 96 153
3 324 30 60
3 15 398 395
3 224 273 240
3 270 347 216
3 195 314 197
3 385 355 27
3 48 389 162
3 393 60 403
3 27 126 409
3 57 296 289
3 399 242 309
3 185 178 120
3 343 89 305
3 139 202 180
3 258 298 71
3 362 377 368
3 297 283 63
3 107 408 406
3 43 42 65
3 67 172 68
3 70 258 71
3 73 118 74
3 76 290 77
3 79 313 80
3 82 155 83
3 85 270 86
3 88 305 89
3 31 30 91
3 10 9 93
3 95 296 96
3 98 287 99
3 294 381 33
3 381 104 33
3 33 219 103
3 219 101 103
3 103 21 33
3 21 294 33
3 102 328 103
3 34 33 104
3 106 383 107
3 109 361 110
3 111 402 112
3 114 271 115
3 117 380 118
3 119 185 120
3 122 318 123
3 125 128 126
3 127 162 128
3 129 298 130
3 132 391 133
3 135 164 136
3 138 240 139
3 141 278 142
3 144 288 145
3 147 315 148
3 137 136 150
3 152 393 153
3 154 292 155
3 156 363 157
3 159 273 160
3 49 48 162
3 163 358 164
3 165 340 166
3 22 21 103
3 169 282 170
3 171 279 172
3 151 150 173
3 175 371 176
3 161 160 178
3 140 139 180
3 158 157 182
3 184 395 185
3 134 133 186
3 187 254 188
3 75 74 190
3 192 236 193
3 25 24 195
3 90 89 197
3 199 303 200
3 131 130 202
3 204 276 205
3 174 173 207
3 209 342 210
3 212 360 213
3 215 377 216
3 218 101 219
3 179 178 220
3 222 355 223
3 121 120 224
3 226 252 227
3 17 19 257
3 19 76 255
3 255 76 78
3 78 251 327
3 251 226 325
3 226 228 379
3 251 325 327
3 228 334 379
3 334 336 124
3 229 246 310
3 336 230 122
3 230 246 229
3 310 277 248
3 246 277 310
3 277 141 248
3 94 143 10
3 141 143 94
3 143 147 10
3 8 147 149
3 149 396 169
3 281 396 386
3 386 341 349
3 113 341 209
3 209 211 111
3 211 330 208
3 330 332 174
3 211 208 111
3 332 299 174
3 299 301 151
3 301 370 135
3 370 175 163
3 174 299 151
3 175 177 165
3 177 356 321
3 177 321 323
3 330 174 208
3 209 111 113
3 396 281 169
3 341 113 349
3 147 8 10
3 78 327 255
3 141 94 248
3 177 323 165
3 365 17 134
3 175 165 167
3 175 167 163
3 260 253 187
3 114 116 146
3 116 260 144
3 144 260 189
3 199 201 117
3 201 114 206
3 117 201 206
3 55 302 75
3 302 199 73
3 191 53 55
3 261 53 156
3 261 156 235
3 233 235 158
3 158 235 156
3 43 66 312
3 66 233 183
3 183 233 158
3 109 41 81
3 41 43 79
3 317 338 284
3 338 109 244
3 67 69 46
3 69 317 44
3 194 171 82
3 171 67 154
3 82 171 154
3 52 192 84
3 192 194 82
3 84 192 82
3 134 50 365
3 50 52 365
3 257 132 17
3 132 134 17
3 365 52 84
3 317 284 44
3 109 81 244
3 79 43 312
3 53 191 156
3 191 55 75
3 260 187 189
3 66 183 312
3 255 257 19
3 116 144 146
3 114 146 204
3 114 204 206
3 163 135 370
3 135 137 301
3 117 73 199
3 137 151 301
3 73 75 302
3 41 79 81
3 338 244 284
3 69 44 46
3 67 46 154
3 386 349 281
3 325 226 379
3 149 169 8
3 124 379 334
3 122 124 336
3 231 389 232
3 233 307 234
3 52 51 236
3 222 35 37
3 384 373 222
3 373 375 28
3 375 359 28
3 359 212 26
3 212 214 127
3 214 231 127
3 212 127 125
3 231 11 49
3 11 13 47
3 49 11 47
3 13 23 243
3 23 25 241
3 243 23 241
3 25 196 308
3 196 265 198
3 25 308 241
3 265 274 90
3 274 269 88
3 265 90 198
3 269 85 304
3 85 87 217
3 269 304 88
3 87 344 215
3 344 346 369
3 87 215 217
3 346 106 369
3 106 108 367
3 369 106 367
3 108 250 407
3 250 239 238
3 407 250 238
3 239 266 237
3 266 268 286
3 237 266 286
3 268 129 72
3 129 131 70
3 70 131 181
3 131 203 181
3 203 272 140
3 140 272 138
3 272 159 138
3 159 161 225
3 225 161 121
3 161 179 121
3 179 221 119
3 119 221 184
3 221 319 184
3 319 295 16
3 16 295 14
3 295 95 14
3 95 97 58
3 58 97 56
3 97 352 152
3 352 29 152
3 29 31 61
3 31 92 59
3 61 31 59
3 92 98 100
3 92 100 59
3 152 29 61
3 108 407 367
3 222 37 384
3 28 222 373
3 359 26 28
3 26 212 125
3 90 274 88
3 215 344 369
3 203 140 181
3 179 119 121
3 95 58 14
3 97 152 56
3 127 231 49
3 319 16 184
3 243 47 13
3 308 196 198
3 159 225 138
3 304 85 217
3 129 70 72
3 268 72 286
3 225 224 240
3 241 309 242
3 81 80 39
3 230 337 245
3 94 93 247
3 108 107 249
3 251 263 252
3 253 404 254
3 255 353 256
3 181 180 258
3 116 115 259
3 261 405 262
3 78 77 263
3 196 195 264
3 266 283 267
3 269 275 270
3 201 200 271
3 272 376 273
3 274 343 275
3 146 145 276
3 277 291 278
3 194 193 279
3 243 242 280
3 281 394 282
3 239 64 283
3 250 249 64
3 284 38 285
3 286 297 63
3 92 91 287
3 189 188 288
3 58 57 289
3 19 18 290
3 246 245 291
3 46 45 292
3 293 381 294
3 295 320 296
3 72 71 297
3 268 267 298
3 105 293 34
3 293 20 34
3 20 22 34
3 22 168 34
3 168 329 350
3 350 218 168
3 218 32 168
3 299 339 300
3 302 306 303
3 304 347 305
3 55 54 306
3 66 65 307
3 308 314 309
3 310 333 311
3 312 390 313
3 198 197 314
3 143 142 315
3 69 68 316
3 244 39 38
3 229 311 318
3 319 398 320
3 321 357 322
3 100 99 324
3 325 388 326
3 168 103 328
3 330 354 331
3 248 247 333
3 334 366 335
3 336 335 337
3 317 316 40
3 332 331 339
3 323 322 340
3 341 387 342
3 265 264 343
3 344 362 345
3 217 216 347
3 113 112 348
3 329 328 102
3 97 96 351
3 327 326 353
3 211 210 354
3 28 27 355
3 356 382 357
3 167 166 358
3 359 409 360
3 338 40 361
3 87 86 362
3 191 190 363
3 84 83 364
3 228 227 366
3 367 408 368
3 370 392 371
3 365 364 372
3 373 385 374
3 203 202 376
3 369 368 377
3 124 123 378
3 206 205 380
3 105 104 381
3 177 176 382
3 346 345 383
3 384 400 385
3 386 397 387
3 379 378 388
3 214 213 389
3 183 182 390
3 257 256 391
3 301 300 392
3 237 63 62
3 61 60 393
3 349 348 394
3 350 102 101
3 16 15 395
3 396 401 397
3 221 220 398
3 13 12 399
3 37 36 400
3 149 148 401
3 208 207 402
3 352 351 403
3 260 259 404
3 235 234 405
3 238 62 406
3 407 406 408
3 375 374 409
3 410 411 412
3 413 414 415
3 416 417 418
3 419 420 421
3 422 423 424
3 425 426 427
3 428 429 430
3 431 432 433
3 434 435 436
3 437 438 439
3 440 441 442
3 443 444 445
3 446 447 448
3 449 450 451
3 452 453 454
3 455 456 457
3 410 458 411
3 413 459 414
3 416 460 417
3 419 461 420
3 422 462 423
3 425 463 426
3 430 464 465
3 429 466 467
3 466 468 467
3 430 465 428
3 429 467 430
3 431 469 432
3 434 470 435
3 437 471 438
3 440 472 441
3 445 473 443
3 473 474 475
3 443 473 475
3 446 476 447
3 477 453 478
3 478 479 480
3 481 482 452
3 452 454 483
3 481 452 483
3 477 478 480
3 451 477 449
3 477 480 449
3 450 481 483
3 450 483 484
3 450 484 451
3 452 478 453
3 455 485 456
