ply
format ascii 1.0
comment Created by Blender 2.92.0 - www.blender.org
element vertex 458
property float x
property float y
property float z
property float s
property float t
property uchar red
property uchar green
property uchar blue
property uchar alpha
element face 832
property list uchar uint vertex_indices
end_header
0.405000 -0.166922 0.217741 0.666667 0.000000 0 0 0 255
0.415000 0.174078 0.217741 0.333333 0.000000 0 0 0 255
0.405000 0.174078 0.217741 0.333333 0.000000 0 0 0 255
0.415000 -0.166922 0.175601 1.000000 0.000000 0 0 0 255
0.415000 -0.166922 0.217741 0.666667 0.000000 0 0 0 255
0.415000 0.174078 0.175601 0.000000 0.000000 0 0 0 255
0.405000 0.174078 0.175601 0.000000 0.000000 0 0 0 255
0.405000 -0.166922 0.175601 1.000000 0.000000 0 0 0 255
0.405000 -0.109802 0.273946 0.341615 0.000000 0 0 0 255
0.415000 -0.106377 0.271574 0.335404 0.000000 0 0 0 255
0.405000 -0.106377 0.271574 0.335404 0.000000 0 0 0 255
0.405000 -0.168090 0.045618 0.864662 0.000000 0 0 0 255
0.415000 -0.164026 0.060885 0.857143 0.000000 0 0 0 255
0.405000 -0.164026 0.060885 0.857143 0.000000 0 0 0 255
0.405000 0.127876 0.046747 0.368421 0.000000 0 0 0 255
0.415000 0.123593 0.057197 0.360902 0.000000 0 0 0 255
0.405000 0.123593 0.057197 0.360902 0.000000 0 0 0 255
0.405000 0.054672 0.332988 0.776398 0.000000 0 0 0 255
0.415000 0.006226 0.266095 0.739130 0.000000 0 0 0 255
0.405000 0.006226 0.266095 0.739130 0.000000 0 0 0 255
0.405000 0.174078 -0.116322 0.444444 0.000000 0 0 0 255
0.415000 0.174078 -0.149862 0.333333 0.000000 0 0 0 255
0.405000 0.174078 -0.149862 0.333333 0.000000 0 0 0 255
0.405000 -0.158453 0.075411 0.849624 0.000000 0 0 0 255
0.415000 -0.151439 0.089134 0.842105 0.000000 0 0 0 255
0.405000 -0.151439 0.089134 0.842105 0.000000 0 0 0 255
0.405000 -0.122485 -0.025699 0.090226 0.000000 0 0 0 255
0.415000 -0.112922 -0.056552 0.030075 0.000000 0 0 0 255
0.405000 -0.112922 -0.056552 0.030075 0.000000 0 0 0 255
0.405000 0.177211 -0.012551 0.609023 0.000000 0 0 0 255
0.415000 0.172515 -0.036073 0.578947 0.000000 0 0 0 255
0.405000 0.172515 -0.036073 0.578947 0.000000 0 0 0 255
0.405000 -0.166922 -0.351962 0.888889 0.000000 5 5 5 255
0.415000 0.095578 -0.155882 0.777778 0.000000 0 0 0 255
0.405000 0.095578 -0.155882 0.777778 0.000000 1 1 1 255
0.405000 -0.042922 -0.000222 0.015038 0.000000 0 0 0 255
0.415000 0.001078 -0.000222 0.007519 0.000000 0 0 0 255
0.405000 0.001078 -0.000222 0.007519 0.000000 0 0 0 255
0.415000 0.106727 0.350844 0.819876 0.000000 0 0 0 255
0.415000 0.110531 0.349362 0.826087 0.000000 0 0 0 255
0.415000 0.125211 0.385589 0.173913 0.000000 0 0 0 255
0.405000 0.140760 0.377947 0.161491 0.000000 0 0 0 255
0.415000 0.147639 0.373096 0.155280 0.000000 0 0 0 255
0.405000 0.147639 0.373096 0.155280 0.000000 0 0 0 255
0.405000 0.102709 0.351924 0.813665 0.000000 0 0 0 255
0.415000 0.098488 0.352584 0.807453 0.000000 0 0 0 255
0.405000 0.098488 0.352584 0.807453 0.000000 0 0 0 255
0.405000 -0.120984 0.043908 0.172932 0.000000 0 0 0 255
0.415000 -0.123975 0.032188 0.165414 0.000000 0 0 0 255
0.405000 -0.123975 0.032188 0.165414 0.000000 0 0 0 255
0.405000 0.031172 0.372118 0.223602 0.000000 0 0 0 255
0.415000 0.043026 0.380232 0.217391 0.000000 0 0 0 255
0.405000 0.043026 0.380232 0.217391 0.000000 0 0 0 255
0.405000 0.172164 0.339512 0.124224 0.000000 0 0 0 255
0.415000 0.174936 0.331102 0.118012 0.000000 0 0 0 255
0.405000 0.174936 0.331102 0.118012 0.000000 0 0 0 255
0.405000 0.132925 0.024436 0.383459 0.000000 0 0 0 255
0.415000 0.131006 0.035809 0.375940 0.000000 0 0 0 255
0.405000 0.131006 0.035809 0.375940 0.000000 0 0 0 255
0.405000 0.125078 -0.040319 0.451128 0.000000 0 0 0 255
0.415000 0.131437 -0.013820 0.421053 0.000000 0 0 0 255
0.405000 0.131437 -0.013820 0.421053 0.000000 0 0 0 255
0.415000 0.003078 0.125768 0.270677 0.000000 0 0 0 255
0.415000 0.016738 0.125197 0.278196 0.000000 0 0 0 255
0.415000 0.020128 0.168414 0.751880 0.000000 0 0 0 255
0.415000 0.153890 0.367590 0.149068 0.000000 0 0 0 255
0.405000 0.153890 0.367590 0.149068 0.000000 0 0 0 255
0.405000 0.097746 0.391529 0.192547 0.000000 0 0 0 255
0.415000 0.107423 0.390318 0.186335 0.000000 0 0 0 255
0.405000 0.107423 0.390318 0.186335 0.000000 0 0 0 255
0.405000 0.054687 0.117047 0.300752 0.000000 0 0 0 255
0.415000 0.042600 0.120785 0.293233 0.000000 0 0 0 255
0.405000 0.042600 0.120785 0.293233 0.000000 0 0 0 255
0.405000 0.134578 0.306368 0.900621 0.000000 0 0 0 255
0.415000 0.133822 0.316142 0.888199 0.000000 0 0 0 255
0.405000 0.133822 0.316142 0.888199 0.000000 0 0 0 255
0.405000 -0.003912 0.255379 0.732919 0.000000 0 0 0 255
0.415000 -0.015328 0.245779 0.726708 0.000000 0 0 0 255
0.405000 -0.015328 0.245779 0.726708 0.000000 0 0 0 255
0.405000 0.117439 0.345257 0.838509 0.000000 0 0 0 255
0.415000 0.114106 0.347494 0.832298 0.000000 0 0 0 255
0.405000 0.114106 0.347494 0.832298 0.000000 0 0 0 255
0.405000 0.082533 0.351384 0.795031 0.000000 0 0 0 255
0.415000 0.072289 0.347358 0.788820 0.000000 0 0 0 255
0.405000 0.072289 0.347358 0.788820 0.000000 0 0 0 255
0.405000 -0.097106 0.143507 0.804511 0.000000 0 0 0 255
0.415000 -0.082858 0.151097 0.796992 0.000000 0 0 0 255
0.405000 -0.082858 0.151097 0.796992 0.000000 0 0 0 255
0.405000 -0.081156 0.099997 0.218045 0.000000 0 0 0 255
0.415000 -0.090172 0.092551 0.210526 0.000000 0 0 0 255
0.405000 -0.090172 0.092551 0.210526 0.000000 0 0 0 255
0.415000 0.149578 -0.092672 0.518797 0.000000 0 0 0 255
0.405000 0.149578 -0.092672 0.518797 0.000000 0 0 0 255
0.415000 -0.102815 0.269576 0.329193 0.000000 0 0 0 255
0.405000 -0.102815 0.269576 0.329193 0.000000 0 0 0 255
0.405000 0.175094 0.044260 0.654135 0.000000 0 0 0 255
0.415000 0.177694 0.028325 0.646617 0.000000 0 0 0 255
0.405000 0.177694 0.028325 0.646617 0.000000 0 0 0 255
0.405000 0.100078 -0.092672 0.511278 0.000000 3 3 3 255
0.415000 0.114593 -0.066657 0.481203 0.000000 0 0 0 255
0.405000 0.114593 -0.066657 0.481203 0.000000 0 0 0 255
0.415000 -0.166922 -0.388082 1.000000 0.000000 0 0 0 255
0.415000 0.174078 -0.388082 0.000000 0.000000 0 0 0 255
0.415000 -0.089922 -0.348522 0.222222 0.000000 0 0 0 255
0.415000 -0.166922 -0.155882 0.666667 0.000000 0 0 0 255
0.405000 -0.166922 -0.155882 0.666667 0.000000 0 0 0 255
0.405000 -0.034567 0.166177 0.774436 0.000000 0 0 0 255
0.415000 -0.016845 0.168433 0.766917 0.000000 0 0 0 255
0.405000 -0.016845 0.168433 0.766917 0.000000 0 0 0 255
0.405000 0.133277 0.382120 0.167702 0.000000 0 0 0 255
0.415000 0.140760 0.377947 0.161491 0.000000 0 0 0 255
0.405000 -0.123375 0.291574 0.372671 0.000000 0 0 0 255
0.415000 -0.121276 0.287267 0.366460 0.000000 0 0 0 255
0.405000 -0.121276 0.287267 0.366460 0.000000 0 0 0 255
0.405000 0.172578 0.269603 0.049689 0.000000 0 0 0 255
0.415000 0.165078 0.253344 0.024845 0.000000 0 0 0 255
0.405000 0.165078 0.253344 0.024845 0.000000 0 0 0 255
0.405000 0.134180 0.298756 0.913043 0.000000 0 0 0 255
0.415000 0.134578 0.306368 0.900621 0.000000 0 0 0 255
0.405000 0.111799 0.076428 0.345865 0.000000 0 0 0 255
0.415000 0.104400 0.085105 0.338346 0.000000 0 0 0 255
0.405000 0.104400 0.085105 0.338346 0.000000 0 0 0 255
0.405000 -0.088036 0.265265 0.304348 0.000000 0 0 0 255
0.415000 -0.084422 0.265088 0.298137 0.000000 0 0 0 255
0.405000 -0.084422 0.265088 0.298137 0.000000 0 0 0 255
0.405000 -0.125368 -0.009628 0.120301 0.000000 0 0 0 255
0.415000 -0.122485 -0.025699 0.090226 0.000000 0 0 0 255
0.405000 -0.126422 0.007088 0.150376 0.000000 0 0 0 255
0.415000 -0.125368 -0.009628 0.120301 0.000000 0 0 0 255
0.405000 0.071633 0.157185 0.729323 0.000000 0 0 0 255
0.415000 0.087163 0.150711 0.721804 0.000000 0 0 0 255
0.405000 0.087163 0.150711 0.721804 0.000000 0 0 0 255
0.405000 0.010656 0.351802 0.236025 0.000000 0 0 0 255
0.415000 0.020454 0.362518 0.229814 0.000000 0 0 0 255
0.405000 0.020454 0.362518 0.229814 0.000000 0 0 0 255
0.405000 -0.124188 0.334043 0.422360 0.000000 0 0 0 255
0.415000 -0.126608 0.323534 0.409938 0.000000 0 0 0 255
0.405000 -0.126608 0.323534 0.409938 0.000000 0 0 0 255
0.405000 0.086888 0.100326 0.323308 0.000000 0 0 0 255
0.415000 0.076888 0.106766 0.315789 0.000000 0 0 0 255
0.405000 0.076888 0.106766 0.315789 0.000000 0 0 0 255
0.405000 -0.124083 0.235480 0.670807 0.000000 0 0 0 255
0.415000 -0.131701 0.239473 0.664596 0.000000 0 0 0 255
0.405000 -0.131701 0.239473 0.664596 0.000000 0 0 0 255
0.405000 0.122395 0.265082 0.962733 0.000000 0 0 0 255
0.415000 0.127140 0.273903 0.950311 0.000000 0 0 0 255
0.405000 0.127140 0.273903 0.950311 0.000000 0 0 0 255
0.405000 -0.138763 0.244086 0.658385 0.000000 1 1 1 255
0.415000 -0.145235 0.249286 0.652174 0.000000 0 0 0 255
0.405000 -0.145235 0.249286 0.652174 0.000000 2 2 2 255
0.415000 -0.127422 0.312818 0.397516 0.000000 0 0 0 255
0.405000 -0.127422 0.312818 0.397516 0.000000 0 0 0 255
0.405000 0.133578 0.012678 0.390977 0.000000 1 1 1 255
0.415000 0.132925 0.024436 0.383459 0.000000 0 0 0 255
0.405000 0.094078 0.352808 0.801242 0.000000 0 0 0 255
0.415000 0.082533 0.351384 0.795031 0.000000 0 0 0 255
0.405000 0.128091 0.332967 0.863354 0.000000 0 0 0 255
0.415000 0.125857 0.336507 0.857143 0.000000 0 0 0 255
0.405000 0.125857 0.336507 0.857143 0.000000 0 0 0 255
0.405000 0.127765 0.124048 0.699248 0.000000 0 0 0 255
0.415000 0.139046 0.112974 0.691729 0.000000 0 0 0 255
0.405000 0.139046 0.112974 0.691729 0.000000 0 0 0 255
0.415000 -0.126422 0.007088 0.150376 0.000000 0 0 0 255
0.405000 -0.120198 0.344300 0.434783 0.000000 0 0 0 255
0.415000 -0.124188 0.334043 0.422360 0.000000 0 0 0 255
0.405000 -0.107647 0.363877 0.459627 0.000000 0 0 0 255
0.415000 -0.114672 0.354260 0.447205 0.000000 0 0 0 255
0.405000 -0.114672 0.354260 0.447205 0.000000 0 0 0 255
0.405000 -0.089922 -0.348522 0.222222 0.000000 0 0 0 255
0.405000 -0.113047 0.276698 0.347826 0.000000 0 0 0 255
0.415000 -0.109802 0.273946 0.341615 0.000000 0 0 0 255
0.405000 0.087578 0.391938 0.198758 0.000000 0 0 0 255
0.415000 0.097746 0.391529 0.192547 0.000000 0 0 0 255
0.415000 -0.126354 0.301385 0.385093 0.000000 0 0 0 255
0.405000 -0.126354 0.301385 0.385093 0.000000 0 0 0 255
0.405000 -0.153914 0.371520 0.527950 0.000000 0 0 0 255
0.415000 -0.139922 0.390218 0.503106 0.000000 0 0 0 255
0.405000 -0.139922 0.390218 0.503106 0.000000 0 0 0 255
0.415000 0.149073 0.100919 0.684211 0.000000 0 0 0 255
0.405000 0.149073 0.100919 0.684211 0.000000 0 0 0 255
0.415000 0.066136 0.112357 0.308271 0.000000 0 0 0 255
0.405000 0.066136 0.112357 0.308271 0.000000 0 0 0 255
0.415000 0.123328 0.339747 0.850932 0.000000 0 0 0 255
0.405000 0.123328 0.339747 0.850932 0.000000 0 0 0 255
0.405000 0.118215 0.067108 0.353383 0.000000 0 0 0 255
0.415000 0.111799 0.076428 0.345865 0.000000 0 0 0 255
0.415000 0.031172 0.372118 0.223602 0.000000 0 0 0 255
0.405000 0.108499 0.246874 0.987578 0.000000 0 0 0 255
0.415000 0.116226 0.256058 0.975155 0.000000 0 0 0 255
0.405000 0.116226 0.256058 0.975155 0.000000 0 0 0 255
0.415000 0.131625 0.325053 0.875776 0.000000 0 0 0 255
0.405000 0.131625 0.325053 0.875776 0.000000 0 0 0 255
0.405000 0.056234 0.386488 0.211180 0.000000 0 0 0 255
0.415000 0.071012 0.390514 0.204969 0.000000 0 0 0 255
0.405000 0.071012 0.390514 0.204969 0.000000 0 0 0 255
0.415000 -0.143051 0.101990 0.834586 0.000000 0 0 0 255
0.405000 -0.143051 0.101990 0.834586 0.000000 0 0 0 255
0.415000 -0.098297 0.084289 0.203008 0.000000 0 0 0 255
0.405000 -0.098297 0.084289 0.203008 0.000000 0 0 0 255
0.405000 0.178203 0.294547 0.086957 0.000000 0 0 0 255
0.415000 0.177078 0.286185 0.074534 0.000000 0 0 0 255
0.405000 0.177078 0.286185 0.074534 0.000000 0 0 0 255
0.415000 0.101747 0.142985 0.714286 0.000000 0 0 0 255
0.405000 0.101747 0.142985 0.714286 0.000000 0 0 0 255
0.405000 0.130596 0.282483 0.937888 0.000000 0 0 0 255
0.415000 0.132898 0.290781 0.925466 0.000000 0 0 0 255
0.405000 0.132898 0.290781 0.925466 0.000000 0 0 0 255
0.415000 -0.125082 0.296278 0.378882 0.000000 0 0 0 255
0.405000 -0.125082 0.296278 0.378882 0.000000 0 0 0 255
0.405000 -0.164492 0.275301 0.627329 0.000000 4 4 4 255
0.415000 -0.167470 0.282945 0.621118 0.000000 0 0 0 255
0.405000 -0.167470 0.282945 0.621118 0.000000 2 2 2 255
0.405000 -0.169860 -0.016091 0.909774 0.000000 0 0 0 255
0.415000 -0.171422 0.013108 0.879699 0.000000 0 0 0 255
0.405000 -0.171422 0.013108 0.879699 0.000000 0 0 0 255
0.405000 -0.049219 0.117021 0.240602 0.000000 0 0 0 255
0.415000 -0.060634 0.112273 0.233083 0.000000 0 0 0 255
0.405000 -0.060634 0.112273 0.233083 0.000000 0 0 0 255
0.405000 -0.166922 -0.388082 1.000000 0.000000 0 0 0 255
0.415000 -0.166922 -0.351962 0.888889 0.000000 0 0 0 255
0.415000 0.157768 0.087952 0.676692 0.000000 0 0 0 255
0.405000 0.157768 0.087952 0.676692 0.000000 0 0 0 255
0.405000 -0.042922 -0.056552 0.022556 0.000000 0 0 0 255
0.415000 -0.042922 -0.000222 0.015038 0.000000 0 0 0 255
0.415000 0.096078 0.093088 0.330827 0.000000 0 0 0 255
0.405000 0.096078 0.093088 0.330827 0.000000 0 0 0 255
0.405000 -0.043024 0.231409 0.714286 0.000000 0 0 0 255
0.415000 -0.059819 0.227383 0.708075 0.000000 0 0 0 255
0.405000 -0.059819 0.227383 0.708075 0.000000 0 0 0 255
0.405000 -0.091725 0.265799 0.310559 0.000000 0 0 0 255
0.405000 -0.098257 0.227547 0.689441 0.000000 0 0 0 255
0.405000 -0.170578 0.029671 0.872180 0.000000 0 0 0 255
0.415000 -0.168090 0.045618 0.864662 0.000000 0 0 0 255
0.405000 0.159491 0.361454 0.142857 0.000000 0 0 0 255
0.415000 0.164419 0.354712 0.136646 0.000000 0 0 0 255
0.405000 0.164419 0.354712 0.136646 0.000000 0 0 0 255
0.415000 0.056234 0.386488 0.211180 0.000000 0 0 0 255
0.405000 0.016738 0.125197 0.278196 0.000000 0 0 0 255
0.405000 0.003078 0.125768 0.270677 0.000000 0 0 0 255
0.405000 0.020128 0.168414 0.751880 0.000000 0 0 0 255
0.415000 0.086888 0.100326 0.323308 0.000000 0 0 0 255
0.405000 -0.111694 0.065482 0.187970 0.000000 0 0 0 255
0.415000 -0.116875 0.055020 0.180451 0.000000 0 0 0 255
0.405000 -0.116875 0.055020 0.180451 0.000000 0 0 0 255
0.405000 0.110531 0.349362 0.826087 0.000000 0 0 0 255
0.415000 -0.107325 0.229484 0.683230 0.000000 0 0 0 255
0.405000 -0.107325 0.229484 0.683230 0.000000 0 0 0 255
0.415000 -0.099157 0.267951 0.322981 0.000000 0 0 0 255
0.405000 -0.099157 0.267951 0.322981 0.000000 0 0 0 255
0.415000 0.001578 0.169198 0.759399 0.000000 0 0 0 255
0.405000 0.001578 0.169198 0.759399 0.000000 0 0 0 255
0.405000 -0.028280 0.237665 0.720497 0.000000 0 0 0 255
0.415000 -0.043024 0.231409 0.714286 0.000000 0 0 0 255
0.405000 0.099078 0.237568 1.000000 0.000000 0 0 0 255
0.415000 0.108499 0.246874 0.987578 0.000000 0 0 0 255
0.405000 -0.040953 0.284909 0.273292 0.000000 0 0 0 255
0.415000 -0.032122 0.294509 0.267081 0.000000 0 0 0 255
0.405000 -0.032122 0.294509 0.267081 0.000000 0 0 0 255
0.415000 0.054687 0.117047 0.300752 0.000000 0 0 0 255
0.415000 0.154578 0.237568 0.000000 0.000000 0 0 0 255
0.405000 0.154578 0.237568 0.000000 0.000000 0 0 0 255
0.405000 0.168650 0.347390 0.130435 0.000000 0 0 0 255
0.415000 0.172164 0.339512 0.124224 0.000000 0 0 0 255
0.415000 -0.028280 0.237665 0.720497 0.000000 0 0 0 255
0.415000 -0.133356 0.113918 0.827068 0.000000 0 0 0 255
0.405000 -0.133356 0.113918 0.827068 0.000000 0 0 0 255
0.405000 0.038038 0.166104 0.744361 0.000000 0 0 0 255
0.415000 0.055232 0.162339 0.736842 0.000000 0 0 0 255
0.405000 0.055232 0.162339 0.736842 0.000000 0 0 0 255
0.405000 -0.110316 0.134738 0.812030 0.000000 0 0 0 255
0.415000 -0.097106 0.143507 0.804511 0.000000 0 0 0 255
0.415000 0.172578 0.269603 0.049689 0.000000 0 0 0 255
0.405000 0.115306 0.134075 0.706767 0.000000 0 0 0 255
0.415000 0.127765 0.124048 0.699248 0.000000 0 0 0 255
0.405000 -0.122422 0.124855 0.819549 0.000000 0 0 0 255
0.415000 -0.110316 0.134738 0.812030 0.000000 0 0 0 255
0.415000 0.130596 0.282483 0.937888 0.000000 0 0 0 255
0.405000 -0.115946 0.232140 0.677019 0.000000 0 0 0 255
0.415000 -0.124083 0.235480 0.670807 0.000000 0 0 0 255
0.415000 0.087578 0.391938 0.198758 0.000000 0 0 0 255
0.415000 -0.120984 0.043908 0.172932 0.000000 0 0 0 255
0.405000 -0.116069 0.279833 0.354037 0.000000 0 0 0 255
0.415000 -0.113047 0.276698 0.347826 0.000000 0 0 0 255
0.415000 0.038038 0.166104 0.744361 0.000000 0 0 0 255
0.405000 0.106727 0.350844 0.819876 0.000000 0 0 0 255
0.415000 0.102709 0.351924 0.813665 0.000000 0 0 0 255
0.405000 0.029931 0.123519 0.285714 0.000000 0 0 0 255
0.415000 0.100078 -0.092672 0.511278 0.000000 0 0 0 255
0.415000 0.122395 0.265082 0.962733 0.000000 0 0 0 255
0.415000 0.127876 0.046747 0.368421 0.000000 0 0 0 255
0.415000 -0.003912 0.255379 0.732919 0.000000 0 0 0 255
0.415000 -0.115946 0.232140 0.677019 0.000000 0 0 0 255
0.415000 0.094078 0.352808 0.801242 0.000000 0 0 0 255
0.405000 -0.166922 -0.116322 0.555556 0.000000 0 0 0 255
0.415000 0.174078 -0.116322 0.444444 0.000000 0 0 0 255
0.405000 0.170855 0.059555 0.661654 0.000000 0 0 0 255
0.415000 0.175094 0.044260 0.654135 0.000000 0 0 0 255
0.415000 0.029931 0.123519 0.285714 0.000000 0 0 0 255
0.415000 0.071633 0.157185 0.729323 0.000000 0 0 0 255
0.405000 -0.171422 0.308088 0.602484 0.000000 0 0 0 255
0.415000 -0.169524 0.330899 0.577640 0.000000 0 0 0 255
0.405000 -0.169524 0.330899 0.577640 0.000000 0 0 0 255
0.405000 0.178166 0.312786 0.105590 0.000000 0 0 0 255
0.415000 0.178203 0.294547 0.086957 0.000000 0 0 0 255
0.405000 -0.071295 0.106585 0.225564 0.000000 0 0 0 255
0.415000 -0.081156 0.099997 0.218045 0.000000 0 0 0 255
0.415000 0.178166 0.312786 0.105590 0.000000 0 0 0 255
0.415000 0.159491 0.361454 0.142857 0.000000 0 0 0 255
0.405000 -0.105487 0.075252 0.195489 0.000000 0 0 0 255
0.415000 -0.111694 0.065482 0.187970 0.000000 0 0 0 255
0.405000 -0.095446 0.266693 0.316770 0.000000 0 0 0 255
0.415000 -0.091725 0.265799 0.310559 0.000000 0 0 0 255
0.405000 0.120518 0.342669 0.844720 0.000000 0 0 0 255
0.415000 0.117439 0.345257 0.838509 0.000000 0 0 0 255
0.415000 -0.105487 0.075252 0.195489 0.000000 0 0 0 255
0.415000 -0.138763 0.244086 0.658385 0.000000 0 0 0 255
0.415000 0.116585 0.388330 0.180124 0.000000 0 0 0 255
0.405000 0.116585 0.388330 0.180124 0.000000 0 0 0 255
0.415000 -0.088036 0.265265 0.304348 0.000000 0 0 0 255
0.405000 0.165054 0.074141 0.669173 0.000000 0 0 0 255
0.415000 0.170855 0.059555 0.661654 0.000000 0 0 0 255
0.405000 -0.089237 0.381901 0.484472 0.000000 6 6 6 255
0.415000 -0.099157 0.373106 0.472050 0.000000 0 0 0 255
0.405000 -0.099157 0.373106 0.472050 0.000000 0 0 0 255
0.415000 0.125078 -0.040319 0.451128 0.000000 1 1 1 255
0.405000 -0.060625 0.270539 0.285714 0.000000 0 0 0 255
0.415000 -0.050382 0.276795 0.279503 0.000000 0 0 0 255
0.405000 -0.050382 0.276795 0.279503 0.000000 0 0 0 255
0.415000 0.174078 -0.348522 0.111111 0.000000 0 0 0 255
0.405000 0.174078 -0.348522 0.111111 0.000000 1 1 1 255
0.405000 -0.169642 0.290979 0.614907 0.000000 1 1 1 255
0.415000 -0.170971 0.299371 0.608696 0.000000 0 0 0 255
0.405000 -0.170971 0.299371 0.608696 0.000000 0 0 0 255
0.415000 -0.095446 0.266693 0.316770 0.000000 0 0 0 255
0.405000 -0.078922 0.225958 0.701863 0.000000 0 0 0 255
0.415000 -0.088778 0.226361 0.695652 0.000000 0 0 0 255
0.405000 -0.088778 0.226361 0.695652 0.000000 0 0 0 255
0.415000 -0.098257 0.227547 0.689441 0.000000 0 0 0 255
0.405000 0.125211 0.385589 0.173913 0.000000 0 0 0 255
0.415000 -0.171422 0.308088 0.602484 0.000000 0 0 0 255
0.415000 -0.107647 0.363877 0.459627 0.000000 0 0 0 255
0.405000 -0.160744 0.268080 0.633540 0.000000 5 5 5 255
0.415000 -0.164492 0.275301 0.627329 0.000000 0 0 0 255
0.415000 -0.122422 0.124855 0.819549 0.000000 0 0 0 255
0.405000 -0.067641 0.157447 0.789474 0.000000 0 0 0 255
0.415000 -0.051521 0.162495 0.781955 0.000000 0 0 0 255
0.405000 -0.051521 0.162495 0.781955 0.000000 0 0 0 255
0.415000 -0.071295 0.106585 0.225564 0.000000 0 0 0 255
0.415000 -0.118826 0.283355 0.360248 0.000000 0 0 0 255
0.405000 -0.118826 0.283355 0.360248 0.000000 0 0 0 255
0.405000 0.174078 -0.388082 0.000000 0.000000 0 0 0 255
0.415000 0.178578 0.011818 0.639098 0.000000 0 0 0 255
0.405000 0.178578 0.011818 0.639098 0.000000 0 0 0 255
0.415000 -0.040953 0.284909 0.273292 0.000000 0 0 0 255
0.415000 -0.169642 0.290979 0.614907 0.000000 0 0 0 255
0.415000 -0.042922 -0.056552 0.022556 0.000000 0 0 0 255
0.405000 -0.077922 0.390218 0.496894 0.000000 19 19 19 255
0.415000 -0.089237 0.381901 0.484472 0.000000 0 0 0 255
0.415000 -0.120198 0.344300 0.434783 0.000000 0 0 0 255
0.405000 -0.164922 -0.043437 0.939850 0.000000 13 13 13 255
0.415000 -0.169860 -0.016091 0.909774 0.000000 0 0 0 255
0.415000 0.133277 0.382120 0.167702 0.000000 0 0 0 255
0.415000 -0.067641 0.157447 0.789474 0.000000 0 0 0 255
0.415000 0.128091 0.332967 0.863354 0.000000 0 0 0 255
0.415000 0.063088 0.341102 0.782609 0.000000 0 0 0 255
0.405000 0.063088 0.341102 0.782609 0.000000 0 0 0 255
0.415000 -0.078922 0.225958 0.701863 0.000000 0 0 0 255
0.405000 -0.024307 0.123526 0.255639 0.000000 0 0 0 255
0.415000 -0.037095 0.120785 0.248120 0.000000 0 0 0 255
0.405000 -0.037095 0.120785 0.248120 0.000000 0 0 0 255
0.405000 -0.163735 0.351895 0.552795 0.000000 0 0 0 255
0.415000 -0.153914 0.371520 0.527950 0.000000 0 0 0 255
0.415000 0.054672 0.332988 0.776398 0.000000 0 0 0 255
0.405000 -0.143422 -0.098692 1.000000 0.000000 13 13 13 255
0.415000 -0.156235 -0.070459 0.969925 0.000000 0 0 0 255
0.405000 -0.156235 -0.070459 0.969925 0.000000 14 14 14 255
0.415000 0.115306 0.134075 0.706767 0.000000 0 0 0 255
0.415000 -0.049219 0.117021 0.240602 0.000000 0 0 0 255
0.415000 -0.071900 0.266513 0.291925 0.000000 0 0 0 255
0.405000 -0.071900 0.266513 0.291925 0.000000 0 0 0 255
0.415000 0.134180 0.298756 0.913043 0.000000 0 0 0 255
0.415000 -0.166922 -0.116322 0.555556 0.000000 0 0 0 255
0.415000 -0.077922 0.390218 0.496894 0.000000 0 0 0 255
0.415000 -0.034567 0.166177 0.774436 0.000000 0 0 0 255
0.405000 0.001078 -0.098692 0.000000 0.000000 2 2 2 255
0.415000 -0.143422 -0.098692 1.000000 0.000000 0 0 0 255
0.405000 -0.156261 0.261316 0.639752 0.000000 8 8 8 255
0.415000 -0.160744 0.268080 0.633540 0.000000 0 0 0 255
0.415000 -0.060625 0.270539 0.285714 0.000000 0 0 0 255
0.415000 -0.170578 0.029671 0.872180 0.000000 0 0 0 255
0.415000 0.120518 0.342669 0.844720 0.000000 0 0 0 255
0.415000 0.010656 0.351802 0.236025 0.000000 0 0 0 255
0.415000 -0.163735 0.351895 0.552795 0.000000 0 0 0 255
0.415000 0.133578 0.012678 0.390977 0.000000 0 0 0 255
0.415000 -0.116069 0.279833 0.354037 0.000000 0 0 0 255
0.415000 0.118215 0.067108 0.353383 0.000000 0 0 0 255
0.405000 -0.151079 0.255040 0.645963 0.000000 3 3 3 255
0.415000 -0.156261 0.261316 0.639752 0.000000 0 0 0 255
0.415000 0.165054 0.074141 0.669173 0.000000 0 0 0 255
0.415000 -0.158453 0.075411 0.849624 0.000000 0 0 0 255
0.415000 0.001078 -0.098692 0.000000 0.000000 0 0 0 255
0.415000 -0.151079 0.255040 0.645963 0.000000 0 0 0 255
0.415000 -0.123375 0.291574 0.372671 0.000000 0 0 0 255
0.415000 0.177211 -0.012551 0.609023 0.000000 0 0 0 255
0.415000 0.099078 0.237568 1.000000 0.000000 0 0 0 255
0.415000 0.168650 0.347390 0.130435 0.000000 0 0 0 255
0.415000 -0.010901 0.125201 0.263158 0.000000 0 0 0 255
0.405000 -0.010901 0.125201 0.263158 0.000000 0 0 0 255
0.415000 -0.024307 0.123526 0.255639 0.000000 0 0 0 255
0.415000 -0.164922 -0.043437 0.939850 0.000000 0 0 0 255
0.500000 0.400000 -0.477778 0.129304 0.995078 150 111 51 255
0.500000 -0.400000 0.477778 1.129304 -0.004922 150 111 51 255
0.500000 -0.400000 -0.477778 0.129304 -0.004922 150 111 51 255
0.500000 0.400000 0.477778 0.025177 0.942618 150 111 51 255
0.400000 -0.400000 0.477778 0.125177 0.042618 150 111 51 255
0.500000 -0.400000 0.477778 0.025177 0.042618 150 111 51 255
0.400000 0.400000 -0.477778 0.125177 0.942618 150 111 51 255
0.500000 -0.400000 -0.477778 0.025177 0.042618 150 111 51 255
0.400000 -0.400000 -0.477778 0.125177 0.042618 150 111 51 255
0.400000 -0.400000 0.477778 0.995970 0.445078 150 111 51 255
0.500000 -0.400000 -0.477778 -0.004029 0.545078 150 111 51 255
0.500000 -0.400000 0.477778 0.995970 0.545078 150 111 51 255
0.500000 0.400000 0.477778 0.995970 0.545078 150 111 51 255
0.400000 0.400000 -0.477778 -0.004029 0.445078 150 111 51 255
0.400000 0.400000 0.477778 0.995970 0.445078 150 111 51 255
0.415000 -0.350000 0.430000 0.845971 0.057578 150 111 51 255
0.400000 0.350000 0.430000 0.995970 0.932578 150 111 51 255
0.415000 0.350000 0.430000 0.845971 0.932578 150 111 51 255
0.415000 0.350000 -0.430000 0.845971 0.932578 150 111 51 255
0.400000 -0.350000 -0.430000 0.995970 0.057578 150 111 51 255
0.415000 -0.350000 -0.430000 0.845971 0.057578 150 111 51 255
0.415000 -0.350000 0.430000 0.845971 0.945078 150 111 51 255
0.400000 -0.350000 -0.430000 0.995970 0.045078 150 111 51 255
0.400000 -0.350000 0.430000 0.995970 0.945078 150 111 51 255
0.415000 0.350000 -0.430000 0.845971 0.045078 150 111 51 255
0.400000 0.350000 0.430000 0.995970 0.945078 150 111 51 255
0.400000 0.350000 -0.430000 0.995970 0.045078 150 111 51 255
0.400000 0.350000 0.430000 0.950422 0.823203 150 111 51 255
0.400000 -0.350000 0.430000 0.950422 0.166953 150 111 51 255
0.400000 -0.400000 0.477778 1.000422 0.120078 150 111 51 255
0.400000 -0.400000 -0.477778 0.000422 0.120078 150 111 51 255
0.400000 0.350000 -0.430000 0.050422 0.823203 150 111 51 255
0.400000 0.400000 -0.477778 0.000422 0.870078 150 111 51 255
0.415000 -0.350000 -0.430000 0.050422 0.166953 255 255 255 255
0.415000 0.350000 0.430000 0.950422 0.823203 255 255 255 255
0.415000 0.350000 -0.430000 0.050422 0.823203 255 255 255 255
0.500000 0.400000 0.477778 1.129304 0.995078 150 111 51 255
0.400000 0.400000 0.477778 0.125177 0.942618 150 111 51 255
0.500000 0.400000 -0.477778 0.025177 0.942618 150 111 51 255
0.400000 -0.400000 -0.477778 -0.004029 0.445078 150 111 51 255
0.500000 0.400000 -0.477778 -0.004029 0.545078 150 111 51 255
0.400000 -0.350000 0.430000 0.995970 0.057578 150 111 51 255
0.400000 0.350000 -0.430000 0.995970 0.932578 150 111 51 255
0.415000 -0.350000 -0.430000 0.845971 0.045078 150 111 51 255
0.415000 0.350000 0.430000 0.845971 0.945078 150 111 51 255
0.400000 -0.350000 -0.430000 0.050422 0.166953 150 111 51 255
0.400000 0.400000 0.477778 1.000422 0.870078 150 111 51 255
0.415000 -0.350000 0.430000 0.950422 0.166953 255 255 255 255
3 0 1 2
3 3 1 4
3 2 5 6
3 6 3 7
3 2 7 0
3 7 4 0
3 0 4 1
3 3 5 1
3 2 1 5
3 6 5 3
3 2 6 7
3 7 3 4
3 8 9 10
3 11 12 13
3 14 15 16
3 17 18 19
3 20 21 22
3 23 24 25
3 26 27 28
3 29 30 31
3 32 33 34
3 35 36 37
3 38 39 40
3 41 42 43
3 44 45 46
3 47 48 49
3 50 51 52
3 53 54 55
3 56 57 58
3 59 60 61
3 62 63 64
3 43 65 66
3 67 68 69
3 70 71 72
3 73 74 75
3 76 77 78
3 79 80 81
3 82 83 84
3 85 86 87
3 88 89 90
3 31 91 92
3 10 93 94
3 95 96 97
3 98 99 100
3 101 102 103
3 34 104 105
3 106 107 108
3 109 110 41
3 111 112 113
3 114 115 116
3 117 118 73
3 119 120 121
3 122 123 124
3 125 126 26
3 127 128 125
3 129 130 131
3 132 133 134
3 135 136 137
3 138 139 140
3 141 142 143
3 144 145 146
3 147 148 149
3 137 150 151
3 152 153 56
3 154 155 82
3 156 157 158
3 159 160 161
3 49 162 127
3 163 164 135
3 165 166 167
3 22 103 168
3 169 170 8
3 171 172 67
3 151 173 174
3 175 176 177
3 161 178 179
3 140 180 181
3 158 182 183
3 184 185 119
3 134 186 50
3 187 188 189
3 75 190 191
3 192 193 194
3 25 195 196
3 90 197 198
3 199 200 201
3 131 202 203
3 204 205 206
3 174 207 208
3 209 210 211
3 212 213 214
3 215 216 217
3 218 219 32
3 179 220 221
3 222 223 35
3 121 224 225
3 226 227 228
3 229 122 230
3 231 232 11
3 233 234 235
3 52 236 192
3 237 238 239
3 225 240 138
3 241 242 243
3 81 39 244
3 230 245 246
3 94 247 248
3 108 249 250
3 251 252 226
3 253 254 187
3 255 256 257
3 181 258 70
3 116 259 260
3 261 262 53
3 78 263 251
3 196 264 265
3 266 267 268
3 269 270 85
3 201 271 114
3 272 273 159
3 274 275 269
3 146 276 204
3 277 278 141
3 194 279 171
3 243 280 47
3 281 282 169
3 239 283 266
3 250 64 239
3 284 285 44
3 286 63 237
3 92 287 98
3 189 288 144
3 58 289 14
3 19 290 76
3 246 291 277
3 46 292 154
3 293 294 20
3 295 296 95
3 72 297 286
3 268 298 129
3 168 32 34
3 299 300 301
3 302 303 199
3 304 305 88
3 55 306 302
3 66 307 233
3 308 309 241
3 310 311 229
3 312 313 79
3 198 314 308
3 143 315 147
3 69 316 317
3 244 38 284
3 229 318 122
3 319 320 295
3 321 322 323
3 100 324 59
3 325 326 327
3 168 328 329
3 330 331 332
3 248 333 310
3 334 335 336
3 336 337 230
3 317 40 338
3 332 339 299
3 323 340 165
3 341 342 209
3 265 343 274
3 344 345 346
3 217 347 304
3 113 348 349
3 329 102 350
3 97 351 352
3 327 353 255
3 211 354 330
3 28 355 222
3 356 357 321
3 167 358 163
3 359 360 212
3 338 361 109
3 87 362 344
3 191 363 156
3 84 364 365
3 228 366 334
3 367 368 369
3 370 371 175
3 365 372 17
3 373 374 375
3 203 376 272
3 369 377 215
3 124 378 379
3 206 380 117
3 105 381 293
3 177 382 356
3 346 383 106
3 384 385 373
3 386 387 341
3 379 388 325
3 214 389 231
3 183 390 312
3 257 391 132
3 301 392 370
3 237 62 238
3 61 393 152
3 349 394 281
3 350 101 218
3 16 395 184
3 396 397 386
3 221 398 319
3 13 399 23
3 37 400 384
3 149 401 396
3 208 402 111
3 352 403 29
3 260 404 253
3 235 405 261
3 238 406 407
3 407 408 367
3 375 409 359
3 8 170 9
3 11 232 12
3 14 289 15
3 17 372 18
3 20 294 21
3 23 399 24
3 26 126 27
3 29 403 30
3 32 219 33
3 35 223 36
3 254 404 259
3 259 115 288
3 115 271 145
3 259 288 188
3 271 200 205
3 200 303 380
3 303 306 118
3 306 54 74
3 190 54 262
3 262 405 363
3 405 234 363
3 234 307 157
3 363 234 157
3 307 65 182
3 65 42 390
3 42 110 313
3 110 361 80
3 361 40 39
3 40 316 38
3 316 68 285
3 68 172 45
3 172 279 292
3 279 193 155
3 193 236 155
3 236 51 83
3 51 186 364
3 186 133 364
3 51 364 83
3 133 391 372
3 391 256 372
3 279 155 292
3 236 83 155
3 80 361 39
3 38 316 285
3 65 390 182
3 157 307 182
3 390 42 313
3 262 363 190
3 200 380 205
3 54 190 74
3 254 259 188
3 288 115 145
3 364 133 372
3 256 353 18
3 353 326 77
3 276 145 271
3 205 276 271
3 357 382 176
3 176 371 340
3 371 392 358
3 358 392 164
3 392 300 164
3 300 339 150
3 150 339 173
3 339 331 173
3 331 354 173
3 354 210 207
3 210 342 402
3 354 207 173
3 342 387 112
3 387 397 348
3 397 401 394
3 401 148 282
3 148 315 170
3 315 142 9
3 142 278 93
3 278 291 247
3 291 245 333
3 245 337 311
3 318 337 335
3 335 366 123
3 366 227 378
3 227 252 378
3 378 252 388
3 252 263 388
3 263 77 326
3 388 263 326
3 77 290 353
3 290 18 353
3 18 372 256
3 337 318 311
3 335 123 318
3 282 148 170
3 315 9 170
3 394 401 282
3 402 342 112
3 348 397 394
3 322 357 176
3 340 322 176
3 300 150 136
3 210 402 207
3 166 340 371
3 358 166 371
3 136 164 300
3 118 380 303
3 74 118 306
3 112 387 348
3 9 142 93
3 93 278 247
3 333 247 291
3 311 333 245
3 378 123 366
3 313 110 80
3 172 292 45
3 45 285 68
3 41 110 42
3 44 285 45
3 47 280 48
3 50 186 51
3 53 262 54
3 56 153 57
3 59 324 60
3 99 287 91
3 91 30 324
3 30 403 60
3 91 324 99
3 403 351 393
3 351 96 393
3 96 296 57
3 296 320 289
3 96 57 153
3 320 398 15
3 398 220 395
3 320 15 289
3 220 178 185
3 178 160 120
3 220 185 395
3 160 273 224
3 273 376 240
3 160 224 120
3 376 202 139
3 202 130 180
3 376 139 240
3 130 298 258
3 298 267 71
3 130 258 180
3 267 283 297
3 283 64 63
3 267 297 71
3 64 249 62
3 249 107 406
3 107 383 408
3 383 345 368
3 345 362 368
3 362 86 377
3 377 86 216
3 86 270 216
3 270 275 347
3 347 275 305
3 275 343 305
3 343 264 89
3 89 264 197
3 264 195 197
3 195 24 314
3 314 24 309
3 24 399 309
3 399 12 242
3 242 12 280
3 12 232 280
3 232 389 48
3 389 213 162
3 213 360 162
3 360 409 126
3 409 374 27
3 360 126 128
3 374 385 27
3 385 400 355
3 400 36 355
3 36 223 355
3 162 360 128
3 232 48 280
3 249 406 62
3 383 368 408
3 393 96 153
3 324 30 60
3 15 398 395
3 224 273 240
3 270 347 216
3 195 314 197
3 385 355 27
3 48 389 162
3 393 60 403
3 27 126 409
3 57 296 289
3 399 242 309
3 185 178 120
3 343 89 305
3 139 202 180
3 258 298 71
3 362 377 368
3 297 283 63
3 107 408 406
3 43 42 65
3 67 172 68
3 70 258 71
3 73 118 74
3 76 290 77
3 79 313 80
3 82 155 83
3 85 270 86
3 88 305 89
3 31 30 91
3 10 9 93
3 95 296 96
3 98 287 99
3 294 381 33
3 381 104 33
3 33 219 103
3 219 101 103
3 103 21 33
3 21 294 33
3 102 328 103
3 34 33 104
3 106 383 107
3 109 361 110
3 111 402 112
3 114 271 115
3 117 380 118
3 119 185 120
3 122 318 123
3 125 128 126
3 127 162 128
3 129 298 130
3 132 391 133
3 135 164 136
3 138 240 139
3 141 278 142
3 144 288 145
3 147 315 148
3 137 136 150
3 152 393 153
3 154 292 155
3 156 363 157
3 159 273 160
3 49 48 162
3 163 358 164
3 165 340 166
3 22 21 103
3 169 282 170
3 171 279 172
3 151 150 173
3 175 371 176
3 161 160 178
3 140 139 180
3 158 157 182
3 184 395 185
3 134 133 186
3 187 254 188
3 75 74 190
3 192 236 193
3 25 24 195
3 90 89 197
3 199 303 200
3 131 130 202
3 204 276 205
3 174 173 207
3 209 342 210
3 212 360 213
3 215 377 216
3 218 101 219
3 179 178 220
3 222 355 223
3 121 120 224
3 226 252 227
3 17 19 257
3 19 76 255
3 255 76 78
3 78 251 327
3 251 226 325
3 226 228 379
3 251 325 327
3 228 334 379
3 334 336 124
3 229 246 310
3 336 230 122
3 230 246 229
3 310 277 248
3 246 277 310
3 277 141 248
3 94 143 10
3 141 143 94
3 143 147 10
3 8 147 149
3 149 396 169
3 281 396 386
3 386 341 349
3 113 341 209
3 209 211 111
3 211 330 208
3 330 332 174
3 211 208 111
3 332 299 174
3 299 301 151
3 301 370 135
3 370 175 163
3 174 299 151
3 175 177 165
3 177 356 321
3 177 321 323
3 330 174 208
3 209 111 113
3 396 281 169
3 341 113 349
3 147 8 10
3 78 327 255
3 141 94 248
3 177 323 165
3 365 17 134
3 175 165 167
3 175 167 163
3 260 253 187
3 114 116 146
3 116 260 144
3 144 260 189
3 199 201 117
3 201 114 206
3 117 201 206
3 55 302 75
3 302 199 73
3 191 53 55
3 261 53 156
3 261 156 235
3 233 235 158
3 158 235 156
3 43 66 312
3 66 233 183
3 183 233 158
3 109 41 81
3 41 43 79
3 317 338 284
3 338 109 244
3 67 69 46
3 69 317 44
3 194 171 82
3 171 67 154
3 82 171 154
3 52 192 84
3 192 194 82
3 84 192 82
3 134 50 365
3 50 52 365
3 257 132 17
3 132 134 17
3 365 52 84
3 317 284 44
3 109 81 244
3 79 43 312
3 53 191 156
3 191 55 75
3 260 187 189
3 66 183 312
3 255 257 19
3 116 144 146
3 114 146 204
3 114 204 206
3 163 135 370
3 135 137 301
3 117 73 199
3 137 151 301
3 73 75 302
3 41 79 81
3 338 244 284
3 69 44 46
3 67 46 154
3 386 349 281
3 325 226 379
3 149 169 8
3 124 379 334
3 122 124 336
3 231 389 232
3 233 307 234
3 52 51 236
3 222 35 37
3 384 373 222
3 373 375 28
3 375 359 28
3 359 212 26
3 212 214 127
3 214 231 127
3 212 127 125
3 231 11 49
3 11 13 47
3 49 11 47
3 13 23 243
3 23 25 241
3 243 23 241
3 25 196 308
3 196 265 198
3 25 308 241
3 265 274 90
3 274 269 88
3 265 90 198
3 269 85 304
3 85 87 217
3 269 304 88
3 87 344 215
3 344 346 369
3 87 215 217
3 346 106 369
3 106 108 367
3 369 106 367
3 108 250 407
3 250 239 238
3 407 250 238
3 239 266 237
3 266 268 286
3 237 266 286
3 268 129 72
3 129 131 70
3 70 131 181
3 131 203 181
3 203 272 140
3 140 272 138
3 272 159 138
3 159 161 225
3 225 161 121
3 161 179 121
3 179 221 119
3 119 221 184
3 221 319 184
3 319 295 16
3 16 295 14
3 295 95 14
3 95 97 58
3 58 97 56
3 97 352 152
3 352 29 152
3 29 31 61
3 31 92 59
3 61 31 59
3 92 98 100
3 92 100 59
3 152 29 61
3 108 407 367
3 222 37 384
3 28 222 373
3 359 26 28
3 26 212 125
3 90 274 88
3 215 344 369
3 203 140 181
3 179 119 121
3 95 58 14
3 97 152 56
3 127 231 49
3 319 16 184
3 243 47 13
3 308 196 198
3 159 225 138
3 304 85 217
3 129 70 72
3 268 72 286
3 225 224 240
3 241 309 242
3 81 80 39
3 230 337 245
3 94 93 247
3 108 107 249
3 251 263 252
3 253 404 254
3 255 353 256
3 181 180 258
3 116 115 259
3 261 405 262
3 78 77 263
3 196 195 264
3 266 283 267
3 269 275 270
3 201 200 271
3 272 376 273
3 274 343 275
3 146 145 276
3 277 291 278
3 194 193 279
3 243 242 280
3 281 394 282
3 239 64 283
3 250 249 64
3 284 38 285
3 286 297 63
3 92 91 287
3 189 188 288
3 58 57 289
3 19 18 290
3 246 245 291
3 46 45 292
3 293 381 294
3 295 320 296
3 72 71 297
3 268 267 298
3 105 293 34
3 293 20 34
3 20 22 34
3 22 168 34
3 168 329 350
3 350 218 168
3 218 32 168
3 299 339 300
3 302 306 303
3 304 347 305
3 55 54 306
3 66 65 307
3 308 314 309
3 310 333 311
3 312 390 313
3 198 197 314
3 143 142 315
3 69 68 316
3 244 39 38
3 229 311 318
3 319 398 320
3 321 357 322
3 100 99 324
3 325 388 326
3 168 103 328
3 330 354 331
3 248 247 333
3 334 366 335
3 336 335 337
3 317 316 40
3 332 331 339
3 323 322 340
3 341 387 342
3 265 264 343
3 344 362 345
3 217 216 347
3 113 112 348
3 329 328 102
3 97 96 351
3 327 326 353
3 211 210 354
3 28 27 355
3 356 382 357
3 167 166 358
3 359 409 360
3 338 40 361
3 87 86 362
3 191 190 363
3 84 83 364
3 228 227 366
3 367 408 368
3 370 392 371
3 365 364 372
3 373 385 374
3 203 202 376
3 369 368 377
3 124 123 378
3 206 205 380
3 105 104 381
3 177 176 382
3 346 345 383
3 384 400 385
3 386 397 387
3 379 378 388
3 214 213 389
3 183 182 390
3 257 256 391
3 301 300 392
3 237 63 62
3 61 60 393
3 349 348 394
3 350 102 101
3 16 15 395
3 396 401 397
3 221 220 398
3 13 12 399
3 37 36 400
3 149 148 401
3 208 207 402
3 352 351 403
3 260 259 404
3 235 234 405
3 238 62 406
3 407 406 408
3 375 374 409
3 410 411 412
3 413 414 415
3 416 417 418
3 419 420 421
3 422 423 424
3 425 426 427
3 428 429 430
3 431 432 433
3 434 435 436
3 437 438 439
3 440 441 442
3 443 444 445
3 410 446 411
3 413 447 414
3 416 448 417
3 419 449 420
3 422 450 423
3 425 451 426
3 428 452 429
3 431 453 432
3 434 454 435
3 438 455 440
3 456 442 441
3 456 441 437
3 438 440 439
3 456 437 439
3 440 455 441
3 443 457 444
